<svg xmlns="http://www.w3.org/2000/svg" width="102" height="102" viewBox="0 0 102 102">
  <g id="basicplus" transform="translate(-909 -378)">
    <g id="Ellipse_24" data-name="Ellipse 24" transform="translate(910 379)" fill="#fff" stroke="#ededef" stroke-width="1">
      <circle cx="50" cy="50" r="50" stroke="none"/>
      <circle cx="50" cy="50" r="50.5" fill="none"/>
    </g>
    <g id="airplane" transform="translate(928.001 393.163)">
      <path id="Path_3651" data-name="Path 3651" d="M2.616,130.184l16.86,2.326-8.227,11.971a1.007,1.007,0,0,0,.585,1.546l4.026,1.007a1.006,1.006,0,0,0,.914-.224l14.336-12.744,8.017.728c1.028.094,2.315.138,3.645.138a49.756,49.756,0,0,0,5.694-.3l2.66-.332a20.055,20.055,0,0,0,5.418-1.469l1.912-.819a2.463,2.463,0,0,0,.271-4.391l-5.82-3.4a17.13,17.13,0,0,0-8.62-2.33h-7.6L25.035,108.665a1.062,1.062,0,0,0-.774-.341l-4.149.075a1.007,1.007,0,0,0-.9,1.422l5.4,12.079H10.686l-4.749-9.509a1.006,1.006,0,0,0-.906-.556H1.005a1.006,1.006,0,0,0-.992,1.172L1.9,124.351l-.228.114a3.034,3.034,0,0,0,.94,5.718ZM15.832,144.95l-2.1-.526L23.645,130l8.171.743-1.392,1.237-.138-.014-.013.145Zm5.838-34.567,2.162-.039L34.007,121.9H26.822ZM4.011,124.754,2.194,113.848H4.409l4.754,9.509a1.007,1.007,0,0,0,.9.557H44.287a15.1,15.1,0,0,1,7.4,1.942l.313.627-.9.45H47.306v2.013h4.026a1.011,1.011,0,0,0,.45-.1l2.013-1.007a1,1,0,0,0,.453-.49l3.464,2.021a.45.45,0,0,1-.05.805l-1.912.819a18.083,18.083,0,0,1-4.875,1.322l-2.66.332a49.882,49.882,0,0,1-8.907.15l-6.14-.557,1.718-1.527a1.006,1.006,0,0,0-.575-1.767L23.24,127.939a1.006,1.006,0,0,0-.92.433l-1.566,2.285L2.892,128.189a1.021,1.021,0,0,1-.316-1.923l.892-.446a1.006,1.006,0,0,0,.543-1.067Zm0,0" transform="translate(0 -94.487)" fill="#101928"/>
      <path id="Path_3652" data-name="Path 3652" d="M104,240.223h2.013v2.013H104Zm0,0" transform="translate(-90.912 -209.791)" fill="#101928"/>
      <path id="Path_3653" data-name="Path 3653" d="M136,240.223h2.013v2.013H136Zm0,0" transform="translate(-118.886 -209.791)" fill="#101928"/>
      <path id="Path_3654" data-name="Path 3654" d="M168,240.223h2.013v2.013H168Zm0,0" transform="translate(-146.86 -209.791)" fill="#101928"/>
      <path id="Path_3655" data-name="Path 3655" d="M200,240.223h2.013v2.013H200Zm0,0" transform="translate(-174.834 -209.791)" fill="#101928"/>
      <path id="Path_3656" data-name="Path 3656" d="M232,240.223h2.013v2.013H232Zm0,0" transform="translate(-202.807 -209.791)" fill="#101928"/>
      <path id="Path_3657" data-name="Path 3657" d="M264,240.223h2.013v2.013H264Zm0,0" transform="translate(-230.781 -209.791)" fill="#101928"/>
      <path id="Path_3658" data-name="Path 3658" d="M296,240.223h2.013v2.013H296Zm0,0" transform="translate(-258.755 -209.791)" fill="#101928"/>
      <path id="Path_3660" data-name="Path 3660" d="M182.6,395.256a3.46,3.46,0,0,0-.617.055,4.026,4.026,0,0,0-7.422-1.017,3.04,3.04,0,0,0-2.77.973,3.523,3.523,0,0,0-1.308,6.877,1.008,1.008,0,0,0,.542.158h12.079a.94.94,0,0,0,.5-.146,3.523,3.523,0,0,0-1.007-6.9Zm.3,5a1.016,1.016,0,0,0-.113.03h-11.45a1.013,1.013,0,0,0-.115-.03,1.51,1.51,0,0,1,.3-2.989,1.468,1.468,0,0,1,.43.074,1.006,1.006,0,0,0,1.191-.517,1.015,1.015,0,0,1,1.439-.4,1.006,1.006,0,0,0,1.528-.618,2.008,2.008,0,0,1,3.925.829,1.007,1.007,0,0,0,1.62.972,1.51,1.51,0,1,1,1.241,2.651Zm0,0" transform="translate(-140.835 -344.693)" fill="#101928"/>
      <path id="Path_3661" data-name="Path 3661" d="M21.987,3.31a4.026,4.026,0,0,0-7.422-1.017,3.038,3.038,0,0,0-2.77.973,3.523,3.523,0,0,0-1.308,6.877,1.008,1.008,0,0,0,.542.158H23.107a.94.94,0,0,0,.5-.146,3.523,3.523,0,0,0-1.007-6.9,3.46,3.46,0,0,0-.617.055Zm2.127,3.468a1.509,1.509,0,0,1-1.208,1.479,1.01,1.01,0,0,0-.113.03H11.344a1.018,1.018,0,0,0-.114-.03,1.51,1.51,0,0,1,.3-2.989,1.468,1.468,0,0,1,.43.074,1.006,1.006,0,0,0,1.191-.517,1.015,1.015,0,0,1,1.439-.4,1.006,1.006,0,0,0,1.528-.618,2.008,2.008,0,0,1,3.925.829,1.007,1.007,0,0,0,1.62.972,1.5,1.5,0,0,1,2.449,1.172Zm0,0" transform="translate(37.284 13.599)" fill="#101928"/>
    </g>
  </g>
</svg>
