<svg xmlns="http://www.w3.org/2000/svg" width="50.936" height="50.936" viewBox="0 0 50.936 50.936">
  <g id="_7" data-name="7" transform="translate(0.25 0.25)">
    <path id="Path_7539" data-name="Path 7539" d="M10.845,0H36.721a3.76,3.76,0,0,1,3.241,3.54c0,4.3.029,9.389-.012,13.686a.727.727,0,0,1-1.446-.082c-.036-4.268.009-9.328-.022-13.6a2.2,2.2,0,0,0-2.326-2.063c-8.453.029-16.908-.053-25.359.041-.006,2.277.01,4.554-.006,6.831A2.544,2.544,0,0,1,8.373,10.8c-2.29.024-4.582-.009-6.872.015-.055,11.96-.008,23.921-.024,35.88a2.194,2.194,0,0,0,2.158,2.247c3.681.032,7.365-.026,11.045.027.8.066.795,1.264.062,1.466H3.265A3.892,3.892,0,0,1,0,47.281V10.833A4,4,0,0,1,1.092,8.677Q4.887,4.888,8.678,1.092A4.128,4.128,0,0,1,10.845,0M2.536,9.331c1.914,0,3.828.01,5.742,0A1.062,1.062,0,0,0,9.316,8.262c.011-1.905,0-3.81,0-5.716Q5.915,5.926,2.536,9.331Z" fill="#db8b8b" stroke="#db8a8a" stroke-width="0.5"/>
    <path id="Path_7540" data-name="Path 7540" d="M165.279,50.891c5.2-.113,10.425-.025,15.635-.044.887-.062.964,1.4.086,1.45-5.154.033-10.311.018-15.465.007A.737.737,0,0,1,165.279,50.891Z" transform="translate(-148.597 -45.825)" fill="#db8b8b" stroke="#db8a8a" stroke-width="0.5"/>
    <path id="Path_7541" data-name="Path 7541" d="M165.272,94.7c5.2-.139,10.427-.034,15.636-.053a.731.731,0,0,1,.086,1.454c-5.152.028-10.306.015-15.458.007A.736.736,0,0,1,165.272,94.7Z" transform="translate(-148.595 -85.303)" fill="#db8b8b" stroke="#db8a8a" stroke-width="0.5"/>
    <path id="Path_7542" data-name="Path 7542" d="M188.853,195.375c-1.579-.051-3.161,0-4.741-.022a12.364,12.364,0,0,0-.258-3.623,4.951,4.951,0,0,0-4.671-3.368c-2.921.013-5.844-.035-8.763.025a4.941,4.941,0,0,0-4.155,3.169,11.494,11.494,0,0,0-.328,3.8c-1.745.049-3.5-.114-5.239.092a4,4,0,0,0-3.124,3.908c0,5.678-.013,11.358.006,17.036a4.093,4.093,0,0,0,3.587,3.846h27.761a4.2,4.2,0,0,0,3.557-3.543V198.853A4.075,4.075,0,0,0,188.853,195.375Zm-21.109-3.535a3.467,3.467,0,0,1,3.068-2c2.759-.008,5.52,0,8.281,0a3.473,3.473,0,0,1,3.414,2.538,15.261,15.261,0,0,1,.127,2.979c-.51,0-1.021,0-1.531,0-.006-1.394.326-3.518-1.482-3.929-3.048-.092-6.118-.084-9.166,0-1.819.394-1.509,2.53-1.5,3.928q-.767.006-1.535,0C167.483,194.183,167.225,192.937,167.744,191.84Zm11.872,3.513q-4.59,0-9.179,0c.2-.8-.562-2.588.769-2.5q3.793.012,7.585,0C180.176,192.7,179.434,194.537,179.616,195.352Zm-20.566,4a2.514,2.514,0,0,1,2.5-2.522q13.5,0,27,0a2.513,2.513,0,0,1,2.456,2.517c-.045,1.434.2,2.95-.43,4.3a5.193,5.193,0,0,1-4.44,3.092,2.714,2.714,0,1,0-5.428,0c-3.784.01-7.568,0-11.352,0a2.72,2.72,0,1,0-5.44,0,5.2,5.2,0,0,1-4.68-3.781A15.937,15.937,0,0,1,159.05,199.356Zm25.591,9.945c.131,1.562-2.446,1.665-2.433.1.194-1.259-.648-3.349.958-3.889C185.25,205.353,184.535,208.009,184.641,209.3Zm-18.225-3.8a1.266,1.266,0,0,1,1.444,1.433c-.114,1.026.241,2.165-.232,3.116a1.246,1.246,0,0,1-2.218-.947C165.585,207.925,164.834,205.935,166.416,205.506Zm24.55,11.153a2.545,2.545,0,0,1-2.616,2.093c-8.936,0-17.87.009-26.806-.007a2.519,2.519,0,0,1-2.489-2.45q-.015-5.246,0-10.492a6.909,6.909,0,0,0,4.88,2.429c-.3,1.631.536,3.619,2.362,3.791,2.1.327,3.465-1.923,3.037-3.8,3.8,0,7.593,0,11.39,0-.314,1.653.561,3.666,2.416,3.8,2.072.278,3.4-1.94,2.978-3.795A6.888,6.888,0,0,0,191,205.791c.029,1.194-.036,2.394.016,3.587C190.944,211.2,191.083,215.509,190.966,216.659Z" transform="translate(-142.048 -169.801)" fill="#faba5f" stroke="#faba5f" stroke-width="0.5"/>
  </g>
</svg>
