<svg xmlns="http://www.w3.org/2000/svg" width="62.309" height="62.309" viewBox="0 0 62.309 62.309">
  <g id="_8" data-name="8" transform="translate(-549 -418)">
    <path id="Path_7530" data-name="Path 7530" d="M-509.764,88.749c-.342-1.06-1.536-.926-2.418-.92a12.317,12.317,0,0,0-6.946-9.124c-.587-.166-.576-.886-.86-1.329a12.28,12.28,0,0,0-12.489-6.854,12.916,12.916,0,0,0-6.957-2.882h-1.886a12.971,12.971,0,0,0-6.427,2.447,12.327,12.327,0,0,0-12.766,5.949c-.4.5-.41,1.381-1.14,1.532a12.175,12.175,0,0,0-7.562,10.249c-.992.1-2.442-.312-2.856.938v.6c1.6,3.148,3.248,6.277,4.817,9.44-1.567,3.167-3.223,6.294-4.817,9.449v.6c.343,1.059,1.536.926,2.418.92a12.311,12.311,0,0,0,6.948,9.122c.587.167.57.888.858,1.329a12.287,12.287,0,0,0,12.491,6.855,12.948,12.948,0,0,0,6.959,2.882h1.881a13.024,13.024,0,0,0,6.428-2.446,12.335,12.335,0,0,0,12.811-6.029c.361-.456.367-1.252,1.008-1.419a12.21,12.21,0,0,0,7.649-10.283c.992-.1,2.442.308,2.859-.941v-.6c-1.6-3.15-3.248-6.278-4.817-9.441,1.569-3.167,3.224-6.294,4.817-9.45Zm-50.366-9.155a1.461,1.461,0,0,0,1.118-1.082A9.789,9.789,0,0,1-549.2,72.38c.862-.026,1.849.6,2.6-.078a9.868,9.868,0,0,1,12.254-.148c.511.444,1.054,1.079,1.818.857a9.771,9.771,0,0,1,10.583,5.962c.254.593.344,1.4,1.058,1.628a9.819,9.819,0,0,1,6.216,7.231c-.83.017-1.664.022-2.494,0a7.407,7.407,0,0,0-6.476-5.368c.033-5.131-5.951-8.782-10.513-6.479-2.483-4.41-9.558-4.6-12.27-.324-4.376-2.585-10.627.768-10.827,5.859a7.427,7.427,0,0,0-7.074,6.305c-.812.044-1.626.011-2.439.017A9.713,9.713,0,0,1-560.13,79.594Zm5.3,2.29c-.006-3.713,4.77-6.051,7.7-3.775a1.372,1.372,0,0,0,2.395-.529c1.586-3.509,7.239-3.423,8.742.112a1.4,1.4,0,0,0,2.4.809c3.135-2.229,7.961.68,7.493,4.486-.307.866.2,2.035,1.244,1.925a4.927,4.927,0,0,1,5.11,2.924c-5.041.033-15.568-.03-21.164.026-5.519-.057-15.98.007-20.949-.027a4.95,4.95,0,0,1,5.726-3.793C-554.937,84.168-554.614,82.806-554.828,81.884Zm33.823,35.848c-.644.282-1.541.375-1.754,1.177a9.8,9.8,0,0,1-9.884,6.3c-.862.028-1.852-.6-2.6.079a9.866,9.866,0,0,1-12.246.148c-.518-.438-1.06-1.084-1.828-.856A9.812,9.812,0,0,1-560.123,118a1.4,1.4,0,0,0-.993-1.082,9.8,9.8,0,0,1-6.05-7.163c.83-.017,1.664-.022,2.494,0a7.415,7.415,0,0,0,6.477,5.366c-.057,5.117,5.98,8.78,10.513,6.483,2.485,4.407,9.562,4.6,12.269.316,4.4,2.592,10.6-.748,10.826-5.851a7.417,7.417,0,0,0,7.074-6.308c.81-.041,1.625-.011,2.438-.016A9.7,9.7,0,0,1-521.005,117.733Zm-6.036-1.651a4.928,4.928,0,0,1-7.737,3.35,1.377,1.377,0,0,0-2.37.658c-1.653,3.472-7.3,3.292-8.737-.274a1.358,1.358,0,0,0-2.287-.776,4.928,4.928,0,0,1-7.562-3.686c0-.95.368-2.492-1-2.67a5.047,5.047,0,0,1-5.362-2.928q21.055-.018,42.112,0a5,5,0,0,1-5.851,3.793C-527.208,113.554-527.053,115.127-527.041,116.081Zm10-17.859a1.246,1.246,0,0,0,0,1.146c1.345,2.649,2.729,5.282,4.051,7.942q-27.926.009-55.854,0c1.323-2.66,2.708-5.291,4.051-7.942a1.242,1.242,0,0,0,0-1.146c-1.342-2.651-2.727-5.282-4.05-7.942,7.22-.017,20.042.017,27.718-.016.021,0,.043,0,.063,0H-541c7.639.032,20.7,0,28.007.016C-514.314,92.941-515.7,95.572-517.043,98.222Z" transform="translate(1121.073 350.359)" fill="#db8a8a"/>
    <path id="Path_7531" data-name="Path 7531" d="M-445.231,275.962c-1.133.172-2.3.021-3.442.08q-.016,1.21,0,2.422c1.06-.164,2.866.038,2.5,1.549-.287,1.128-1.626.871-2.5.9-.047,1.322.066,2.654-.057,3.97a1.216,1.216,0,0,1-2.352-.089c-.072-3.281-.01-6.57-.03-9.854a1.234,1.234,0,0,1,1.207-1.331c1.5.011,3.007-.041,4.505.027A1.218,1.218,0,0,1-445.231,275.962Z" transform="translate(1014.838 169.467)" fill="#faba5f"/>
    <path id="Path_7532" data-name="Path 7532" d="M-373.841,284.268c-.5-1.334-1.346-2.561-1.824-3.882a3.7,3.7,0,0,0,.256-6.208c-1.279-.909-2.911-.555-4.373-.624a1.247,1.247,0,0,0-1.334,1.334c.021,3.285-.041,6.573.03,9.855a1.216,1.216,0,0,0,2.352.089c.123-1.317.007-2.652.058-3.975a2.658,2.658,0,0,1,.452.009c.785,1.466,1.441,3.006,2.279,4.441A1.221,1.221,0,0,0-373.841,284.268Zm-2.512-6.573c-.383.925-1.524.72-2.323.72q-.016-1.21,0-2.422C-377.573,275.713-375.782,276.23-376.353,277.7Z" transform="translate(953.36 169.516)" fill="#faba5f"/>
    <path id="Path_7533" data-name="Path 7533" d="M-301.174,285.774c-1.569-.329-3.9.768-4.915-.807-.173-3.327-.026-6.69-.074-10.029a1.234,1.234,0,0,1,1.206-1.331c1.5.011,3.008-.041,4.506.027a1.218,1.218,0,0,1,.17,2.329c-1.133.172-2.3.021-3.443.08q-.016,1.21,0,2.422c1.06-.166,2.866.038,2.5,1.549-.287,1.128-1.626.871-2.5.9q-.016,1.21,0,2.422c1.222.118,2.531-.22,3.7.2C-298.8,284.3-299.838,286.194-301.174,285.774Z" transform="translate(887.535 169.467)" fill="#faba5f"/>
    <path id="Path_7534" data-name="Path 7534" d="M-231.175,285.774c-1.569-.329-3.9.768-4.914-.808-.173-3.327-.026-6.688-.074-10.029a1.234,1.234,0,0,1,1.207-1.33c1.5.011,3.007-.041,4.505.027a1.218,1.218,0,0,1,.17,2.329c-1.134.172-2.3.021-3.443.08q-.016,1.21,0,2.423c1.06-.166,2.865.037,2.5,1.548-.286,1.128-1.626.871-2.5.9q-.016,1.21,0,2.422c1.222.118,2.53-.22,3.7.2C-228.8,284.3-229.838,286.195-231.175,285.774Z" transform="translate(826.054 169.467)" fill="#faba5f"/>
  </g>
</svg>
