<svg xmlns="http://www.w3.org/2000/svg" width="22.113" height="20.781" viewBox="0 0 22.113 20.781">
  <g id="Group_1356" data-name="Group 1356" transform="translate(-580.07 -115.351)">
    <path id="Path_7480" data-name="Path 7480" d="M810.439,160.875a.608.608,0,0,1-.172.594q-1.293,1.3-2.594,2.592a.629.629,0,0,1-.91,0c-.437-.427-.867-.862-1.3-1.3a.655.655,0,0,1-.187-.508.648.648,0,0,1,1.083-.419c.252.236.5.481.732.732.1.1.148.1.249,0,.656-.666,1.321-1.323,1.98-1.986a.651.651,0,0,1,.67-.189A.609.609,0,0,1,810.439,160.875Z" transform="translate(-212.209 -42.42)" fill="#101928"/>
    <path id="Path_7481" data-name="Path 7481" d="M597.665,115.362q-6.542-.023-13.084,0a4.517,4.517,0,0,0-4.4,3.521,1.467,1.467,0,0,1-.116.467v1.123c.068.022.042.083.05.128a4.581,4.581,0,0,0,4.651,3.852c.971-.025,1.943,0,2.915-.009.185,0,.252.03.249.238-.012,1.065-.006,2.13-.006,3.2v.24a3.026,3.026,0,0,0-.576-.392,2.3,2.3,0,0,0-.638-.188,2.026,2.026,0,0,0-2.116,1.123,1.809,1.809,0,0,0,.573,2.218q1.313,1.1,2.63,2.2a.312.312,0,0,1,.129.271c-.006.676,0,1.353,0,2.029a.657.657,0,0,0,.719.747q3.811.005,7.622,0a.66.66,0,0,0,.728-.741q0-3.551,0-7.1a1.957,1.957,0,0,0-1.826-2.029c-1.064-.123-2.126-.263-3.189-.39-.136-.016-.175-.069-.17-.2.01-.316.016-.634,0-.95-.011-.2.03-.274.259-.272,1.821.012,3.642.006,5.462.006a5.617,5.617,0,0,0,.668-.036,4.542,4.542,0,0,0-.536-9.05Zm-1.959,19.3c.006.144-.039.18-.179.178-1.021-.005-2.042,0-3.063,0s-2.028,0-3.041,0c-.159,0-.212-.032-.2-.2a8.771,8.771,0,0,0,0-.906c-.008-.164.041-.2.2-.2,1.676.006,3.351,0,5.026,0,.36,0,.719.006,1.078,0,.136,0,.188.026.182.174C595.694,134.027,595.695,134.344,595.706,134.66Zm-.575-7.1a.629.629,0,0,1,.569.631c.006,1.31,0,2.619.006,3.928,0,.16-.1.125-.185.126h-3.6c-.971,0-1.943,0-2.914,0a.44.44,0,0,1-.313-.1c-.868-.734-1.74-1.462-2.61-2.193-.378-.317-.448-.576-.236-.857a.769.769,0,0,1,1.064-.126c.4.31.78.636,1.16.967a.667.667,0,0,0,1.16-.537c-.005-1.346,0-2.691,0-4.037q0-2.05,0-4.1a.626.626,0,0,1,.387-.617.608.608,0,0,1,.667.089.681.681,0,0,1,.242.573q0,2.472,0,4.943c0,.56.206.77.759.835C592.564,127.233,593.848,127.4,595.131,127.559Zm2.6-4.411c-1.914.014-3.828,0-5.742.008-.149,0-.173-.048-.171-.181.006-.6.011-1.195,0-1.792a1.942,1.942,0,0,0-3.821-.444,2.113,2.113,0,0,0-.063.555c0,.562,0,1.123,0,1.684,0,.141-.035.178-.177.177-1.072-.006-2.144.005-3.217-.006a3.248,3.248,0,0,1-.53-6.44,3.761,3.761,0,0,1,.687-.055h6.433q3.238,0,6.477,0a3.247,3.247,0,0,1,.121,6.493Z" transform="translate(0 0)" fill="#101928"/>
    <path id="Path_7482" data-name="Path 7482" d="M810.267,161.469q-1.293,1.3-2.594,2.592a.629.629,0,0,1-.91,0c-.437-.427-.867-.862-1.3-1.3a.655.655,0,0,1-.187-.508.648.648,0,0,1,1.083-.419c.252.236.5.481.732.732.1.1.148.1.249,0,.656-.666,1.321-1.323,1.98-1.986a.651.651,0,0,1,.67-.189.645.645,0,0,1,.275,1.073Z" transform="translate(-212.209 -42.42)" fill="#101928"/>
    <path id="Path_7483" data-name="Path 7483" d="M810.267,161.469q-1.293,1.3-2.594,2.592a.629.629,0,0,1-.91,0c-.437-.427-.867-.862-1.3-1.3a.655.655,0,0,1-.187-.508.648.648,0,0,1,1.083-.419c.252.236.5.481.732.732.1.1.148.1.249,0,.656-.666,1.321-1.323,1.98-1.986a.651.651,0,0,1,.67-.189.645.645,0,0,1,.275,1.073Z" transform="translate(-212.209 -42.42)" fill="#101928"/>
  </g>
</svg>
