<svg xmlns="http://www.w3.org/2000/svg" width="56.821" height="50.358" viewBox="0 0 56.821 50.358">
  <g id="_6" data-name="6" transform="translate(-589.75 -30.687)">
    <path id="Path_7535" data-name="Path 7535" d="M642.371,39.2c-4.219-.019-8.438,0-12.656-.011-.031-1.533.04-3.069-.036-4.6a4.158,4.158,0,0,0-4.258-3.645c-4.915,0-9.831,0-14.747,0a4.144,4.144,0,0,0-3.974,3.291c-.175,1.643-.069,3.307-.081,4.961-3.891-.019-9.8,0-12.668,0A4.219,4.219,0,0,0,590,42.836V63.62c.007.04.014.078.023.117a4.463,4.463,0,0,0,1.614,2.676c0,.036,0,.073,0,.109a3.927,3.927,0,0,0,1.665.7V67.17c1.641.164,3.3.032,4.943.079v.031H599.9v-.031q6.237-.008,12.477,0c0,.011,0,.021,0,.032h1.654v-.025q4.125-.023,8.25,0v.025h1.655v-.032q6.239-.007,12.477,0v.031h1.657v-.031c1.647-.047,3.3.085,4.943-.079v.054a3.941,3.941,0,0,0,1.667-.7c0-.036,0-.072,0-.108a4.466,4.466,0,0,0,1.615-2.7c.008-.035.014-.072.021-.108V42.822A4.225,4.225,0,0,0,642.371,39.2Zm-34.109-4.194a2.485,2.485,0,0,1,2.411-2.41q7.486,0,14.974,0a2.487,2.487,0,0,1,2.411,2.411q.007,2.092,0,4.183-.822.01-1.643,0c-.235-1.042.571-2.751-.668-3.279q-7.584-.045-15.172,0c-1.24.528-.432,2.239-.668,3.28q-.822.01-1.643,0Q608.256,37.1,608.263,35.007Zm16.495,4.185q-6.6.008-13.194,0-.01-.822,0-1.643,6.6-.008,13.195,0Q624.767,38.37,624.758,39.192Zm-1.529,26.391q-5.067.035-10.136,0A.828.828,0,0,1,612.92,64c3.424-.116,6.875-.034,10.308-.041A.824.824,0,0,1,623.229,65.582Zm-.948-3.289q-4.12.007-8.239,0-.01-2.607,0-5.212,0-.691,0-1.384,4.12-.007,8.239,0,0,.693,0,1.384Q622.291,59.687,622.28,62.293Zm22.388.892a2.486,2.486,0,0,1-2.408,2.407q-8.4.012-16.793,0a2.6,2.6,0,0,0-1.525-3.183c-.013-1.777-.006-3.553-.006-5.331q0-1.091,0-2.181a.841.841,0,0,0-.921-.855h-9.7a.84.84,0,0,0-.921.855q-.005,1.091,0,2.181c0,1.777.008,3.553-.005,5.33a2.6,2.6,0,0,0-1.525,3.185c-5.6,0-11.2.005-16.794,0a2.482,2.482,0,0,1-2.407-2.407q0-2.676,0-5.355,0-7.288,0-14.575a2.479,2.479,0,0,1,2.3-2.4c3.046-.031,9.533.012,13.378-.014a.763.763,0,0,0,.151,0q17.39.01,34.781.006a2.483,2.483,0,0,1,2.408,2.407q.007,7.288,0,14.575Q644.671,60.509,644.668,63.186Z" transform="translate(0 0)" fill="#db8a8a" stroke="#db8a8a" stroke-width="0.5"/>
    <path id="Path_7536" data-name="Path 7536" d="M804.946,366a5.769,5.769,0,0,1-11.446.233c-.144-1.636-.025-3.285-.07-4.926h1.654c.009,1.452-.016,2.905.012,4.357a4.121,4.121,0,0,0,8.2.225c.078-1.525.013-3.056.034-4.583h1.656C804.956,362.874,805.034,364.442,804.946,366Z" transform="translate(-181.049 -294.03)" fill="#db8a8a" stroke="#db8a8a" stroke-width="0.5"/>
    <path id="Path_7537" data-name="Path 7537" d="M657.909,364.5a4.145,4.145,0,0,1-4.049,3.838q-22.389.01-44.78,0a4.154,4.154,0,0,1-4.171-3.95c-.025-3.324.015-6.65-.019-9.974a3.927,3.927,0,0,0,1.665.7q-.01,4.581,0,9.159a2.485,2.485,0,0,0,2.3,2.4c1.153.02,2.307,0,3.46.008a4.337,4.337,0,0,1-.809-2.417c-.006-3.034,0-6.066,0-9.1h1.657q-.008,4.552,0,9.1a2.487,2.487,0,0,0,2.41,2.41q15.849.007,31.7,0a2.489,2.489,0,0,0,2.411-2.411q.005-4.552,0-9.1h1.657c-.009,3.033,0,6.064-.006,9.1a4.337,4.337,0,0,1-.807,2.417c1.153,0,2.307.012,3.461-.008a2.489,2.489,0,0,0,2.3-2.4q0-4.58,0-9.16a3.939,3.939,0,0,0,1.666-.7C657.9,357.78,657.951,361.143,657.909,364.5Z" transform="translate(-13.252 -287.551)" fill="#faba5f" stroke="#faba5f" stroke-width="0.5"/>
    <path id="Path_7538" data-name="Path 7538" d="M825.531,375.931a2.473,2.473,0,1,0,2.836,3.262A2.49,2.49,0,0,0,825.531,375.931Zm.8,3.19c-.982.43-1.583-1.217-.581-1.541C826.731,377.155,827.332,378.8,826.331,379.121Z" transform="translate(-207.88 -306.981)" fill="#db8a8a" stroke="#db8a8a" stroke-width="0.5"/>
  </g>
</svg>
