<svg xmlns="http://www.w3.org/2000/svg" width="44.139" height="44.139" viewBox="0 0 44.139 44.139">
  <g id="calender" transform="translate(-420.5 -282.5)">
    <path id="Path_3690" data-name="Path 3690" d="M10.437,1A1.351,1.351,0,0,0,9.089,2.348V3.7H5.044A4.056,4.056,0,0,0,1,7.741V40.095a3.972,3.972,0,0,0,4.044,4.044H40.095a3.972,3.972,0,0,0,4.044-4.044V7.741A3.972,3.972,0,0,0,40.095,3.7H36.051V2.348a1.348,1.348,0,0,0-2.7,0V3.7H11.785V2.348A1.274,1.274,0,0,0,10.437,1ZM41.443,40.095a1.274,1.274,0,0,1-1.348,1.348H5.044A1.274,1.274,0,0,1,3.7,40.095V14.481H41.443Zm-8.089-33.7V7.741a1.348,1.348,0,1,0,2.7,0V6.392h4.044a1.274,1.274,0,0,1,1.348,1.348v4.044H3.7V7.741A1.274,1.274,0,0,1,5.044,6.392H9.089V7.741a1.274,1.274,0,0,0,1.348,1.348,1.274,1.274,0,0,0,1.348-1.348V6.392Z" transform="translate(420 282)" fill="#101928" stroke="#fff" stroke-width="1"/>
    <path id="Path_3691" data-name="Path 3691" d="M7.448,21.589h5.392a1.274,1.274,0,0,0,1.348-1.348V14.848A1.274,1.274,0,0,0,12.841,13.5H7.448A1.274,1.274,0,0,0,6.1,14.848v5.392a1.274,1.274,0,0,0,1.348,1.348ZM8.8,16.2h2.7v2.7H8.8Z" transform="translate(421.775 286.351)" fill="#101928" stroke="#fff" stroke-width="1"/>
    <path id="Path_3692" data-name="Path 3692" d="M15.448,21.589h5.392a1.274,1.274,0,0,0,1.348-1.348V14.848A1.274,1.274,0,0,0,20.841,13.5H15.448A1.274,1.274,0,0,0,14.1,14.848v5.392A1.274,1.274,0,0,0,15.448,21.589ZM16.8,16.2h2.7v2.7H16.8Z" transform="translate(424.56 286.351)" fill="#101928" stroke="#fff" stroke-width="1"/>
    <path id="Path_3693" data-name="Path 3693" d="M23.448,21.589h5.392a1.274,1.274,0,0,0,1.348-1.348V14.848A1.274,1.274,0,0,0,28.841,13.5H23.448A1.274,1.274,0,0,0,22.1,14.848v5.392A1.274,1.274,0,0,0,23.448,21.589ZM24.8,16.2h2.7v2.7H24.8Z" transform="translate(427.345 286.351)" fill="#101928" stroke="#fff" stroke-width="1"/>
    <path id="Path_3694" data-name="Path 3694" d="M7.448,30.589h5.392a1.274,1.274,0,0,0,1.348-1.348V23.848A1.274,1.274,0,0,0,12.841,22.5H7.448A1.274,1.274,0,0,0,6.1,23.848v5.392a1.274,1.274,0,0,0,1.348,1.348ZM8.8,25.2h2.7v2.7H8.8Z" transform="translate(421.775 289.484)" fill="#101928" stroke="#fff" stroke-width="1"/>
    <path id="Path_3695" data-name="Path 3695" d="M15.448,30.589h5.392a1.274,1.274,0,0,0,1.348-1.348V23.848A1.274,1.274,0,0,0,20.841,22.5H15.448A1.274,1.274,0,0,0,14.1,23.848v5.392A1.274,1.274,0,0,0,15.448,30.589ZM16.8,25.2h2.7v2.7H16.8Z" transform="translate(424.56 289.484)" fill="#101928" stroke="#fff" stroke-width="1"/>
    <path id="Path_3696" data-name="Path 3696" d="M23.448,30.589h5.392a1.274,1.274,0,0,0,1.348-1.348V23.848A1.274,1.274,0,0,0,28.841,22.5H23.448A1.274,1.274,0,0,0,22.1,23.848v5.392A1.274,1.274,0,0,0,23.448,30.589ZM24.8,25.2h2.7v2.7H24.8Z" transform="translate(427.345 289.484)" fill="#101928" stroke="#fff" stroke-width="1"/>
  </g>
</svg>
