<svg xmlns="http://www.w3.org/2000/svg" width="64.541" height="62.067" viewBox="0 0 64.541 62.067">
  <g id="discounts" transform="translate(-905.453 -440.256)">
    <g id="offer_2_" data-name="offer (2)" transform="translate(914.253 446.997)">
      <path id="Path_3682" data-name="Path 3682" d="M95.653,284.16l9.459-4.468a4.374,4.374,0,0,1,5.779,1.753L91.664,293.882a13.21,13.21,0,0,1-8.249.934l-13.26-3.722a4.907,4.907,0,0,0-3.643.4l-2.773,1.483.374-13.524.11,0a12.974,12.974,0,0,1,13.483-.943l.794.411a9.255,9.255,0,0,0,4.009,1.035l7.795.216a5.8,5.8,0,0,1,5.351,3.987Zm0,0" transform="translate(-55.15 -239.772)" fill="#fbd7a4"/>
      <path id="Path_3683" data-name="Path 3683" d="M150.309,15.343a5.043,5.043,0,0,1,0,5.728,5.057,5.057,0,0,0-.893,2.87c0,.093,0,.187.008.281l0,.038a5.179,5.179,0,0,1-2.962,4.93l-.021.009a5.3,5.3,0,0,0-2.389,2.3l-.009.019a5.448,5.448,0,0,1-5.126,2.849l-.037,0a5.557,5.557,0,0,0-3.274.852,5.585,5.585,0,0,1-5.955,0,5.554,5.554,0,0,0-2.97-.86c-.1,0-.2,0-.3.008l-.037,0a5.447,5.447,0,0,1-5.126-2.849l-.009-.019a5.307,5.307,0,0,0-2.389-2.3l-.021-.009a5.177,5.177,0,0,1-2.962-4.93l0-.038a5.062,5.062,0,0,0-.885-3.15,5.038,5.038,0,0,1,0-5.728,5.057,5.057,0,0,0,.893-2.87c0-.093,0-.187-.008-.28l0-.036a5.174,5.174,0,0,1,2.962-4.93l.021-.009a5.316,5.316,0,0,0,2.389-2.3l.009-.018a5.449,5.449,0,0,1,5.126-2.85l.037,0a5.574,5.574,0,0,0,3.274-.852,5.587,5.587,0,0,1,5.954,0,5.575,5.575,0,0,0,3.274.852l.037,0a5.45,5.45,0,0,1,5.126,2.85l.009.018a5.313,5.313,0,0,0,2.389,2.3l.021.009a5.176,5.176,0,0,1,2.962,4.93l0,.036a5.059,5.059,0,0,0,.885,3.15Zm0,0" transform="translate(-98.692 -0.341)" fill="#fbd7a4"/>
      <path id="Path_3684" data-name="Path 3684" d="M92.123,280.221h-.03l-12.812-.352a1.078,1.078,0,1,1,.059-2.156l11.612.319a4.662,4.662,0,0,0-.138-.519,4.729,4.729,0,0,0-4.357-3.247l-7.8-.216a10.4,10.4,0,0,1-4.474-1.155l-.794-.411a11.851,11.851,0,0,0-12.362.865,1.078,1.078,0,1,1-1.249-1.757,14,14,0,0,1,14.6-1.022l.793.411a8.23,8.23,0,0,0,3.542.914l7.8.216a6.871,6.871,0,0,1,6.684,7.061,1.078,1.078,0,0,1-1.078,1.048Zm0,0" transform="translate(-51.335 -232.787)" fill="#fbd7a4"/>
      <g id="Group_1252" data-name="Group 1252" transform="translate(23.369 6.551)">
        <path id="Path_3685" data-name="Path 3685" d="M197.577,71.584a1.078,1.078,0,0,1-.913-1.649l12.77-20.457a1.078,1.078,0,1,1,1.829,1.142l-12.77,20.457a1.077,1.077,0,0,1-.915.507Zm0,0" transform="translate(-193.391 -48.962)" fill="#fbd7a4"/>
        <path id="Path_3686" data-name="Path 3686" d="M178.191,63.617c-2.625,0-4.761-2.435-4.761-5.429s2.135-5.427,4.761-5.427,4.76,2.434,4.76,5.427S180.815,63.617,178.191,63.617Zm0-8.7c-1.436,0-2.6,1.467-2.6,3.271s1.168,3.273,2.6,3.273,2.6-1.468,2.6-3.273S179.627,54.917,178.191,54.917Zm0,0" transform="translate(-173.43 -52.25)" fill="#fbd7a4"/>
        <path id="Path_3687" data-name="Path 3687" d="M264.441,143.407c-2.625,0-4.761-2.435-4.761-5.429s2.135-5.427,4.761-5.427,4.76,2.434,4.76,5.427S267.066,143.407,264.441,143.407Zm0-8.7c-1.436,0-2.6,1.467-2.6,3.271s1.168,3.273,2.6,3.273,2.6-1.469,2.6-3.273S265.877,134.707,264.441,134.707Zm0,0" transform="translate(-248.058 -121.288)" fill="#fbd7a4"/>
      </g>
      <path id="Path_3688" data-name="Path 3688" d="M8.588,283.02l-.042,1.524L0,284.308.516,265.55l8.548.234-.1,3.711Zm0,0" transform="translate(0 -229.815)" fill="#fbd7a4"/>
    </g>
    <g id="offer" transform="translate(905.453 440.256)">
      <g id="Group_1251" data-name="Group 1251" transform="translate(0 0)">
        <path id="Path_3677" data-name="Path 3677" d="M115.842,25.232l0,.029a.058.058,0,0,1,0,.014,6.252,6.252,0,0,0,3.566,5.961l.015.007.009,0a4.2,4.2,0,0,1,1.9,1.823l0,.008.008.016a6.531,6.531,0,0,0,6.128,3.424h.048a4.486,4.486,0,0,1,2.642.687,6.664,6.664,0,0,0,7.1,0,4.458,4.458,0,0,1,2.64-.687h.049a6.527,6.527,0,0,0,6.128-3.424l.008-.016,0-.008a4.191,4.191,0,0,1,1.888-1.817l.02-.009.015-.007a6.254,6.254,0,0,0,3.566-5.961l0-.017,0-.029c0-.07-.006-.141-.006-.211a3.959,3.959,0,0,1,.7-2.256,6.122,6.122,0,0,0,0-6.953,4,4,0,0,1-.7-2.469l0-.025c0-.007,0-.013,0-.021a6.251,6.251,0,0,0-3.567-5.96L148,7.326l-.013-.006A4.208,4.208,0,0,1,146.092,5.5l-.013-.025a6.526,6.526,0,0,0-6.137-3.425h-.02l-.027,0a4.479,4.479,0,0,1-2.632-.687,6.664,6.664,0,0,0-7.1,0,4.476,4.476,0,0,1-2.633.687l-.027,0h-.02a6.528,6.528,0,0,0-6.137,3.425l-.013.025a4.207,4.207,0,0,1-1.892,1.819l-.014.006-.017.008a6.248,6.248,0,0,0-3.567,5.961.085.085,0,0,0,0,.016l0,.029c0,.069.006.141.006.21a3.96,3.96,0,0,1-.7,2.257,6.115,6.115,0,0,0,0,6.953,4.006,4.006,0,0,1,.7,2.471Zm1.078-8.2A6.109,6.109,0,0,0,118,13.551c0-.113,0-.229-.01-.343a.076.076,0,0,0,0-.015l0-.027a4.1,4.1,0,0,1,2.349-3.888l.011-.005.014-.006A6.348,6.348,0,0,0,123.238,6.5l.011-.021,0-.009a4.368,4.368,0,0,1,4.1-2.267l.027,0h.019a6.613,6.613,0,0,0,3.908-1.016,4.507,4.507,0,0,1,4.8,0,6.617,6.617,0,0,0,3.908,1.016h.019l.027,0a4.368,4.368,0,0,1,4.1,2.267l0,.009.011.022a6.35,6.35,0,0,0,2.874,2.765l.013.006.012.005a4.1,4.1,0,0,1,2.349,3.886l0,.026c0,.007,0,.015,0,.022a6.168,6.168,0,0,0,1.074,3.822,3.966,3.966,0,0,1,0,4.5,6.105,6.105,0,0,0-1.084,3.482c0,.115,0,.23.01.343,0,.005,0,.011,0,.016l0,.028a4.1,4.1,0,0,1-2.352,3.889l-.022.01a6.347,6.347,0,0,0-2.874,2.766l-.01.019-.005.01a4.368,4.368,0,0,1-4.11,2.266h-.047a6.593,6.593,0,0,0-3.9,1.016,4.507,4.507,0,0,1-4.8,0,6.624,6.624,0,0,0-3.546-1.026c-.117,0-.235,0-.352.009h-.048a4.366,4.366,0,0,1-4.11-2.266l0-.01-.01-.019a6.356,6.356,0,0,0-2.885-2.771l-.013-.006a4.1,4.1,0,0,1-2.35-3.89l0-.03a.156.156,0,0,1,0-.016,6.166,6.166,0,0,0-1.075-3.823,3.959,3.959,0,0,1,0-4.5Zm0,0" transform="translate(-98.692 -0.341)" fill="#101928"/>
        <path id="Path_3678" data-name="Path 3678" d="M205.007,79.42a1.077,1.077,0,0,0,1.485-.344l12.77-20.457a1.078,1.078,0,1,0-1.829-1.142l-12.77,20.457a1.078,1.078,0,0,0,.344,1.485Zm0,0" transform="translate(-176.945 -49.332)" fill="#101928"/>
        <path id="Path_3679" data-name="Path 3679" d="M186.191,71.614c2.625,0,4.76-2.435,4.76-5.429s-2.135-5.427-4.76-5.427-4.761,2.434-4.761,5.427S183.565,71.614,186.191,71.614Zm0-8.7c1.436,0,2.6,1.467,2.6,3.271s-1.168,3.273-2.6,3.273-2.6-1.469-2.6-3.273S184.754,62.914,186.191,62.914Zm0,0" transform="translate(-156.984 -52.617)" fill="#101928"/>
        <path id="Path_3680" data-name="Path 3680" d="M267.68,145.974c0,2.993,2.135,5.429,4.761,5.429s4.76-2.435,4.76-5.429-2.135-5.428-4.76-5.428S267.68,142.982,267.68,145.974Zm7.365,0c0,1.8-1.168,3.273-2.6,3.273s-2.6-1.469-2.6-3.273,1.168-3.272,2.6-3.272S275.045,144.17,275.045,145.974Zm0,0" transform="translate(-231.612 -121.655)" fill="#101928"/>
        <path id="Path_3681" data-name="Path 3681" d="M57.758,272.033a5.445,5.445,0,0,0-7.19-2.192l-8.442,3.988a6.892,6.892,0,0,0-5.866-3.615l-7.8-.216a8.238,8.238,0,0,1-3.542-.914l-.793-.411a13.988,13.988,0,0,0-12.959.014l.049-1.8a1.078,1.078,0,0,0-1.048-1.107l-8.548-.234H1.594A1.078,1.078,0,0,0,.517,266.6L0,285.353a1.078,1.078,0,0,0,1.047,1.107L9.6,286.7h.029a1.078,1.078,0,0,0,1.078-1.048l.025-.9,2.222-1.189a3.814,3.814,0,0,1,2.843-.311l13.261,3.722.069.017a14.177,14.177,0,0,0,2.916.3,14.365,14.365,0,0,0,6.006-1.311,1.057,1.057,0,0,0,.134-.073l19.227-12.437a1.078,1.078,0,0,0,.352-1.436ZM8.589,284.065l-.012.446-6.391-.176.457-16.6,6.393.175Zm28.484-.013a12.207,12.207,0,0,1-7.473.834l-13.225-3.712a5.957,5.957,0,0,0-4.443.486l-1.136.607.3-11.039a11.847,11.847,0,0,1,12.037-.642l.794.411a10.4,10.4,0,0,0,4.474,1.155l7.8.215a4.729,4.729,0,0,1,4.357,3.247,4.661,4.661,0,0,1,.138.52l-11.612-.319a1.078,1.078,0,0,0-.059,2.155l12.812.352h.03a1.079,1.079,0,0,0,1.078-1.048,6.92,6.92,0,0,0-.1-1.4l8.66-4.092.025-.012a3.292,3.292,0,0,1,3.724.522Zm0,0" transform="translate(-0.001 -229.813)" fill="#101928"/>
      </g>
    </g>
  </g>
</svg>
