<svg xmlns="http://www.w3.org/2000/svg" width="109.094" height="104.912" viewBox="0 0 109.094 104.912">
  <g id="disccount" transform="translate(-905.453 -440.256)">
    <g id="offer_2_" data-name="offer (2)" transform="translate(920.328 451.65)" opacity="0.25">
      <path id="Path_3682" data-name="Path 3682" d="M117.683,289.063l15.988-7.552a7.393,7.393,0,0,1,9.769,2.963l-32.5,21.022A22.33,22.33,0,0,1,97,307.075l-22.414-6.291a8.3,8.3,0,0,0-6.158.674l-4.688,2.507.632-22.86.186.005a21.929,21.929,0,0,1,22.79-1.594l1.342.694a15.643,15.643,0,0,0,6.776,1.749l13.175.365a9.8,9.8,0,0,1,9.044,6.739Zm0,0" transform="translate(-49.222 -214.033)" fill="#faba5f"/>
      <path id="Path_3683" data-name="Path 3683" d="M175.332,25.7a8.525,8.525,0,0,1,0,9.682,8.548,8.548,0,0,0-1.51,4.851c0,.157,0,.317.014.474l0,.064a8.754,8.754,0,0,1-5.006,8.334l-.035.016a8.964,8.964,0,0,0-4.037,3.885l-.016.032a9.209,9.209,0,0,1-8.665,4.815l-.063,0a9.393,9.393,0,0,0-5.535,1.439,9.44,9.44,0,0,1-10.065,0,9.388,9.388,0,0,0-5.02-1.453c-.171,0-.344,0-.515.013l-.063,0a9.207,9.207,0,0,1-8.664-4.815l-.016-.032A8.971,8.971,0,0,0,122.1,49.12l-.035-.016a8.75,8.75,0,0,1-5.006-8.334l.005-.064a8.556,8.556,0,0,0-1.5-5.325,8.516,8.516,0,0,1,0-9.682,8.549,8.549,0,0,0,1.51-4.851c0-.157,0-.317-.013-.473l-.005-.061a8.746,8.746,0,0,1,5.006-8.334l.035-.016a8.986,8.986,0,0,0,4.038-3.886l.016-.031a9.211,9.211,0,0,1,8.664-4.818l.063,0a9.421,9.421,0,0,0,5.535-1.439,9.444,9.444,0,0,1,10.065,0,9.423,9.423,0,0,0,5.535,1.439l.063,0a9.213,9.213,0,0,1,8.665,4.818l.016.031a8.98,8.98,0,0,0,4.037,3.886l.035.016a8.749,8.749,0,0,1,5.006,8.334l0,.061a8.552,8.552,0,0,0,1.5,5.325Zm0,0" transform="translate(-88.083 -0.341)" fill="#faba5f"/>
      <path id="Path_3684" data-name="Path 3684" d="M114.761,287.977h-.051l-21.657-.594a1.823,1.823,0,0,1,.1-3.644l19.628.539a7.882,7.882,0,0,0-.234-.878,7.993,7.993,0,0,0-7.364-5.488l-13.176-.365a17.581,17.581,0,0,1-7.563-1.953L83.1,274.9a20.032,20.032,0,0,0-20.9,1.462A1.822,1.822,0,0,1,60.1,273.39a23.662,23.662,0,0,1,24.683-1.727l1.341.695a13.911,13.911,0,0,0,5.988,1.545l13.177.365a11.614,11.614,0,0,1,11.3,11.936,1.822,1.822,0,0,1-1.822,1.772Zm0,0" transform="translate(-45.817 -207.799)" fill="#faba5f"/>
      <g id="Group_1252" data-name="Group 1252" transform="translate(39.5 11.074)">
        <path id="Path_3685" data-name="Path 3685" d="M198.32,87.2a1.822,1.822,0,0,1-1.544-2.787l21.584-34.578a1.822,1.822,0,1,1,3.091,1.93L199.867,86.342a1.821,1.821,0,0,1-1.547.858Zm0,0" transform="translate(-191.246 -48.962)" fill="#faba5f"/>
        <path id="Path_3686" data-name="Path 3686" d="M181.477,71.111c-4.438,0-8.047-4.116-8.047-9.176s3.609-9.173,8.047-9.173,8.046,4.115,8.046,9.173S185.913,71.111,181.477,71.111Zm0-14.705c-2.428,0-4.4,2.48-4.4,5.529s1.975,5.532,4.4,5.532,4.4-2.482,4.4-5.532S183.9,56.406,181.477,56.406Zm0,0" transform="translate(-173.43 -51.896)" fill="#faba5f"/>
        <path id="Path_3687" data-name="Path 3687" d="M267.727,150.9c-4.438,0-8.047-4.117-8.047-9.177s3.609-9.173,8.047-9.173,8.046,4.115,8.046,9.173S272.164,150.9,267.727,150.9Zm0-14.706c-2.428,0-4.4,2.48-4.4,5.529s1.975,5.533,4.4,5.533,4.4-2.483,4.4-5.533S270.154,136.195,267.727,136.195Zm0,0" transform="translate(-240.036 -113.513)" fill="#faba5f"/>
      </g>
      <path id="Path_3688" data-name="Path 3688" d="M14.517,295.079l-.07,2.576L0,297.257l.872-31.706,14.449.4-.173,6.272Zm0,0" transform="translate(0 -205.147)" fill="#faba5f"/>
    </g>
    <g id="offer" transform="translate(905.453 440.256)">
      <g id="Group_1251" data-name="Group 1251" transform="translate(0 0)">
        <path id="Path_3677" data-name="Path 3677" d="M117.071,42.415l0,.05a.1.1,0,0,1,0,.023,10.568,10.568,0,0,0,6.028,10.076l.025.012.015.007a7.1,7.1,0,0,1,3.21,3.081l.007.014c.005.009.01.019.014.028a11.039,11.039,0,0,0,10.358,5.788l.047,0h.034a7.583,7.583,0,0,1,4.466,1.161,11.264,11.264,0,0,0,12.009,0,7.535,7.535,0,0,1,4.462-1.162l.036,0,.047,0A11.033,11.033,0,0,0,168.181,55.7l.014-.028.007-.014a7.084,7.084,0,0,1,3.191-3.072l.034-.016.026-.012a10.571,10.571,0,0,0,6.028-10.076l0-.029,0-.049c-.006-.118-.01-.238-.01-.356a6.692,6.692,0,0,1,1.187-3.814,10.348,10.348,0,0,0,0-11.753,6.761,6.761,0,0,1-1.179-4.173l0-.042c0-.012,0-.022,0-.035a10.566,10.566,0,0,0-6.029-10.075l-.029-.014-.022-.01a7.113,7.113,0,0,1-3.2-3.074l-.021-.043a11.031,11.031,0,0,0-10.374-5.789l-.034,0-.046,0a7.571,7.571,0,0,1-4.449-1.162,11.264,11.264,0,0,0-12.008,0,7.565,7.565,0,0,1-4.45,1.162l-.046,0-.034,0a11.034,11.034,0,0,0-10.374,5.789l-.021.043a7.111,7.111,0,0,1-3.2,3.075l-.023.01-.028.014a10.561,10.561,0,0,0-6.029,10.076.144.144,0,0,0,0,.028l0,.049c.007.117.01.238.01.355a6.694,6.694,0,0,1-1.187,3.816,10.336,10.336,0,0,0,0,11.753,6.771,6.771,0,0,1,1.177,4.177Zm1.822-13.859a10.326,10.326,0,0,0,1.832-5.886c0-.191-.005-.387-.017-.579a.13.13,0,0,0,0-.026l0-.045a6.927,6.927,0,0,1,3.97-6.572l.019-.009.023-.011a10.73,10.73,0,0,0,4.858-4.674l.018-.036.008-.016a7.383,7.383,0,0,1,6.931-3.832l.046,0,.032,0a11.178,11.178,0,0,0,6.6-1.718,7.618,7.618,0,0,1,8.119,0,11.184,11.184,0,0,0,6.6,1.717l.033,0,.045,0a7.383,7.383,0,0,1,6.931,3.832l.008.016.019.036a10.733,10.733,0,0,0,4.858,4.673l.022.011.02.009a6.932,6.932,0,0,1,3.971,6.568l0,.044c0,.012,0,.025,0,.037a10.426,10.426,0,0,0,1.816,6.461,6.7,6.7,0,0,1,0,7.612,10.32,10.32,0,0,0-1.832,5.886c0,.194.005.389.017.579,0,.009,0,.019,0,.028l0,.048a6.938,6.938,0,0,1-3.976,6.573l-.037.017a10.728,10.728,0,0,0-4.858,4.675c-.006.011-.012.022-.017.033l-.009.017A7.383,7.383,0,0,1,158,57.854l-.033,0-.046,0a11.144,11.144,0,0,0-6.586,1.718,7.618,7.618,0,0,1-8.12,0,11.2,11.2,0,0,0-5.994-1.735c-.2,0-.4.005-.594.015l-.047,0a.227.227,0,0,0-.035,0,7.379,7.379,0,0,1-6.947-3.83l-.008-.017-.017-.033A10.744,10.744,0,0,0,124.7,49.29l-.021-.01a6.932,6.932,0,0,1-3.972-6.575l0-.051c0-.009,0-.018,0-.027a10.422,10.422,0,0,0-1.817-6.462,6.692,6.692,0,0,1,0-7.611Zm0,0" transform="translate(-88.083 -0.341)" fill="#101928"/>
        <path id="Path_3678" data-name="Path 3678" d="M205.358,94.923a1.821,1.821,0,0,0,2.51-.581l21.584-34.578a1.822,1.822,0,1,0-3.091-1.93L204.777,92.412a1.822,1.822,0,0,0,.581,2.511Zm0,0" transform="translate(-157.924 -44.066)" fill="#101928"/>
        <path id="Path_3679" data-name="Path 3679" d="M189.477,79.108c4.437,0,8.046-4.117,8.046-9.177s-3.609-9.173-8.046-9.173-8.047,4.115-8.047,9.173S185.039,79.108,189.477,79.108Zm0-14.706c2.427,0,4.4,2.48,4.4,5.529s-1.975,5.533-4.4,5.533-4.4-2.483-4.4-5.533S187.049,64.4,189.477,64.4Zm0,0" transform="translate(-140.108 -46.997)" fill="#101928"/>
        <path id="Path_3680" data-name="Path 3680" d="M267.68,149.721c0,5.06,3.609,9.176,8.047,9.176s8.046-4.117,8.046-9.176-3.609-9.174-8.046-9.174S267.68,144.662,267.68,149.721Zm12.449,0c0,3.05-1.975,5.532-4.4,5.532s-4.4-2.483-4.4-5.532,1.975-5.53,4.4-5.53S280.129,146.671,280.129,149.721Zm0,0" transform="translate(-206.714 -108.614)" fill="#101928"/>
        <path id="Path_3681" data-name="Path 3681" d="M97.628,276.51a9.2,9.2,0,0,0-12.153-3.7l-14.27,6.74a11.65,11.65,0,0,0-9.915-6.11l-13.177-.365a13.924,13.924,0,0,1-5.988-1.545l-1.341-.695a23.644,23.644,0,0,0-21.9.023l.084-3.038a1.821,1.821,0,0,0-1.771-1.872l-14.448-.4H2.694a1.822,1.822,0,0,0-1.82,1.771L0,299.025a1.822,1.822,0,0,0,1.77,1.872l14.447.4h.05a1.822,1.822,0,0,0,1.822-1.772l.042-1.518L21.889,296a6.446,6.446,0,0,1,4.805-.526l22.415,6.291c.039.011.078.02.117.028a23.962,23.962,0,0,0,4.93.509,24.281,24.281,0,0,0,10.152-2.216,1.786,1.786,0,0,0,.226-.123l32.5-21.022a1.822,1.822,0,0,0,.6-2.427Zm-83.11,20.338-.02.754-10.8-.3.772-28.064,10.806.3Zm48.146-.021a20.633,20.633,0,0,1-12.632,1.409l-22.354-6.274a10.069,10.069,0,0,0-7.51.822l-1.92,1.027.515-18.659a20.025,20.025,0,0,1,20.346-1.085l1.342.695a17.581,17.581,0,0,0,7.563,1.953l13.176.364a7.993,7.993,0,0,1,7.364,5.489,7.881,7.881,0,0,1,.234.878L49.16,282.9a1.822,1.822,0,0,0-.1,3.643l21.657.594h.051a1.823,1.823,0,0,0,1.822-1.772,11.7,11.7,0,0,0-.177-2.364l14.639-6.916.043-.02a5.564,5.564,0,0,1,6.3.882Zm0,0" transform="translate(-0.001 -205.145)" fill="#101928"/>
      </g>
    </g>
  </g>
</svg>
