<svg xmlns="http://www.w3.org/2000/svg" width="32.125" height="32.125" viewBox="0 0 32.125 32.125">
  <g id="durationcal" transform="translate(0.25 0.25)">
    <path id="Path_3690" data-name="Path 3690" d="M7.918,1a.99.99,0,0,0-.988.988v.988H3.965A2.973,2.973,0,0,0,1,5.941V29.66a2.912,2.912,0,0,0,2.965,2.965h25.7a2.912,2.912,0,0,0,2.965-2.965V5.941A2.912,2.912,0,0,0,29.66,2.977H26.7V1.988a.988.988,0,1,0-1.977,0v.988H8.906V1.988A.934.934,0,0,0,7.918,1ZM30.649,29.66a.934.934,0,0,1-.988.988H3.965a.934.934,0,0,1-.988-.988V10.883H30.649ZM24.719,4.953v.988a.988.988,0,1,0,1.977,0V4.953H29.66a.934.934,0,0,1,.988.988V8.906H2.977V5.941a.934.934,0,0,1,.988-.988H6.93v.988a.934.934,0,0,0,.988.988.934.934,0,0,0,.988-.988V4.953Z" transform="translate(-1 -1)" fill="#101928" stroke="#fff" stroke-width="0.5"/>
    <path id="Path_3691" data-name="Path 3691" d="M7.088,19.43h3.953a.934.934,0,0,0,.988-.988V14.488a.934.934,0,0,0-.988-.988H7.088a.934.934,0,0,0-.988.988v3.953A.934.934,0,0,0,7.088,19.43Zm.988-3.953h1.977v1.977H8.077Z" transform="translate(-1.06 -1.146)" fill="#101928" stroke="#fff" stroke-width="0.5"/>
    <path id="Path_3692" data-name="Path 3692" d="M15.088,19.43h3.953a.934.934,0,0,0,.988-.988V14.488a.934.934,0,0,0-.988-.988H15.088a.934.934,0,0,0-.988.988v3.953A.934.934,0,0,0,15.088,19.43Zm.988-3.953h1.977v1.977H16.077Z" transform="translate(-1.153 -1.146)" fill="#101928" stroke="#fff" stroke-width="0.5"/>
    <path id="Path_3693" data-name="Path 3693" d="M23.088,19.43h3.953a.934.934,0,0,0,.988-.988V14.488a.934.934,0,0,0-.988-.988H23.088a.934.934,0,0,0-.988.988v3.953A.934.934,0,0,0,23.088,19.43Zm.988-3.953h1.977v1.977H24.077Z" transform="translate(-1.247 -1.146)" fill="#101928" stroke="#fff" stroke-width="0.5"/>
    <path id="Path_3694" data-name="Path 3694" d="M7.088,28.43h3.953a.934.934,0,0,0,.988-.988V23.488a.934.934,0,0,0-.988-.988H7.088a.934.934,0,0,0-.988.988v3.953A.934.934,0,0,0,7.088,28.43Zm.988-3.953h1.977v1.977H8.077Z" transform="translate(-1.06 -1.252)" fill="#101928" stroke="#fff" stroke-width="0.5"/>
    <path id="Path_3695" data-name="Path 3695" d="M15.088,28.43h3.953a.934.934,0,0,0,.988-.988V23.488a.934.934,0,0,0-.988-.988H15.088a.934.934,0,0,0-.988.988v3.953A.934.934,0,0,0,15.088,28.43Zm.988-3.953h1.977v1.977H16.077Z" transform="translate(-1.153 -1.252)" fill="#101928" stroke="#fff" stroke-width="0.5"/>
    <path id="Path_3696" data-name="Path 3696" d="M23.088,28.43h3.953a.934.934,0,0,0,.988-.988V23.488a.934.934,0,0,0-.988-.988H23.088a.934.934,0,0,0-.988.988v3.953A.934.934,0,0,0,23.088,28.43Zm.988-3.953h1.977v1.977H24.077Z" transform="translate(-1.247 -1.252)" fill="#101928" stroke="#fff" stroke-width="0.5"/>
  </g>
</svg>
