<svg xmlns="http://www.w3.org/2000/svg" width="21.58" height="20.376" viewBox="0 0 21.58 20.376">
  <g id="Group_1357" data-name="Group 1357" transform="translate(373.92 -119.91)">
    <path id="Path_7469" data-name="Path 7469" d="M-221.5,215.467a3.958,3.958,0,0,0-1.686-.531l-.167-.072a1.463,1.463,0,0,0,.165-.025,1.9,1.9,0,0,0,1.338-2.4,1.89,1.89,0,0,0-2.436-1.225,1.9,1.9,0,0,0-1.259,1.975,1.882,1.882,0,0,0,1.583,1.672c-.039.063-.119.033-.167.074a3.927,3.927,0,0,0-1.7.543.575.575,0,0,0-.281.592.627.627,0,0,0,.965.467,3.232,3.232,0,0,1,1.449-.373,3.3,3.3,0,0,1,1.59.4.625.625,0,0,0,.837-.253A.63.63,0,0,0-221.5,215.467Zm-2.789-2.48a.639.639,0,0,1,.64-.618.639.639,0,0,1,.622.636.639.639,0,0,1-.65.628A.64.64,0,0,1-224.288,212.987Z" transform="translate(-139.488 -86.067)" fill="#101928"/>
    <path id="Path_7470" data-name="Path 7470" d="M-277.687,166.05a5.7,5.7,0,0,0-5.694,5.681,5.7,5.7,0,0,0,5.67,5.706,5.7,5.7,0,0,0,5.694-5.682A5.7,5.7,0,0,0-277.687,166.05Zm-.033,10.122a4.431,4.431,0,0,1-4.4-4.439,4.431,4.431,0,0,1,4.44-4.418,4.43,4.43,0,0,1,4.4,4.439A4.431,4.431,0,0,1-277.719,176.172Z" transform="translate(-85.446 -43.544)" fill="#101928"/>
    <path id="Path_7471" data-name="Path 7471" d="M-352.349,130.3q0-4.239,0-8.477a1.813,1.813,0,0,0-.929-1.639,1.95,1.95,0,0,0-1.046-.272H-372.04a1.988,1.988,0,0,0-1.451.663,1.612,1.612,0,0,0-.429.961v13.328c.057.143.037.3.1.447a1.913,1.913,0,0,0,1.841,1.174c2.16.013,4.321,0,6.481,0,.33,0,.33.006.256.336a9.121,9.121,0,0,1-.613,1.68.575.575,0,0,1-.631.392c-.567-.026-1.136-.017-1.7,0a.674.674,0,0,0-.635.411.649.649,0,0,0,.092.712.8.8,0,0,0,.7.268q4.882,0,9.764,0a1.638,1.638,0,0,0,.252-.011.688.688,0,0,0,.475-1.09.708.708,0,0,0-.621-.294c-.6,0-1.192-.007-1.788,0a.414.414,0,0,1-.428-.265c-.154-.316-.3-.635-.425-.964a5.686,5.686,0,0,1-.277-.95c-.036-.194-.012-.218.188-.225.063,0,.127,0,.19,0,2.118,0,4.237-.01,6.355,0a1.947,1.947,0,0,0,2-2C-352.376,133.1-352.349,131.7-352.349,130.3Zm-9.376,8.647h-2.862c.087-.2.173-.389.25-.581a7.513,7.513,0,0,0,.495-1.775c.016-.123.053-.174.191-.169.35.012.7,0,1.051,0,.072,0,.127-.007.141.1a8.582,8.582,0,0,0,.744,2.395S-361.72,138.93-361.725,138.946Zm8.093-4.547c0,.521-.237.759-.755.76h-17.507c-.532,0-.763-.234-.763-.772q0-6.189,0-12.376c0-.537.231-.77.765-.77h17.506c.518,0,.753.237.753.761Z" transform="translate(0 0)" fill="#101928"/>
    <path id="Path_7472" data-name="Path 7472" d="M-221.5,215.467a3.958,3.958,0,0,0-1.686-.531l-.167-.072a1.463,1.463,0,0,0,.165-.025,1.9,1.9,0,0,0,1.338-2.4,1.89,1.89,0,0,0-2.436-1.225,1.9,1.9,0,0,0-1.259,1.975,1.882,1.882,0,0,0,1.583,1.672c-.039.063-.119.033-.167.074a3.927,3.927,0,0,0-1.7.543.575.575,0,0,0-.281.592.627.627,0,0,0,.965.467,3.232,3.232,0,0,1,1.449-.373,3.3,3.3,0,0,1,1.59.4.625.625,0,0,0,.837-.253A.63.63,0,0,0-221.5,215.467Zm-2.789-2.48a.639.639,0,0,1,.64-.618.639.639,0,0,1,.622.636.639.639,0,0,1-.65.628A.64.64,0,0,1-224.288,212.987Z" transform="translate(-139.488 -86.067)" fill="#101928"/>
    <path id="Path_7473" data-name="Path 7473" d="M-277.687,166.05a5.7,5.7,0,0,0-5.694,5.681,5.7,5.7,0,0,0,5.67,5.706,5.7,5.7,0,0,0,5.694-5.682A5.7,5.7,0,0,0-277.687,166.05Zm-.033,10.122a4.431,4.431,0,0,1-4.4-4.439,4.431,4.431,0,0,1,4.44-4.418,4.43,4.43,0,0,1,4.4,4.439A4.431,4.431,0,0,1-277.719,176.172Z" transform="translate(-85.446 -43.544)" fill="#101928"/>
    <path id="Path_7474" data-name="Path 7474" d="M-221.5,215.467a3.958,3.958,0,0,0-1.686-.531l-.167-.072a1.463,1.463,0,0,0,.165-.025,1.9,1.9,0,0,0,1.338-2.4,1.89,1.89,0,0,0-2.436-1.225,1.9,1.9,0,0,0-1.259,1.975,1.882,1.882,0,0,0,1.583,1.672c-.039.063-.119.033-.167.074a3.927,3.927,0,0,0-1.7.543.575.575,0,0,0-.281.592.627.627,0,0,0,.965.467,3.232,3.232,0,0,1,1.449-.373,3.3,3.3,0,0,1,1.59.4.625.625,0,0,0,.837-.253A.63.63,0,0,0-221.5,215.467Zm-2.789-2.48a.639.639,0,0,1,.64-.618.639.639,0,0,1,.622.636.639.639,0,0,1-.65.628A.64.64,0,0,1-224.288,212.987Z" transform="translate(-139.488 -86.067)" fill="#101928"/>
    <path id="Path_7475" data-name="Path 7475" d="M-277.687,166.05a5.7,5.7,0,0,0-5.694,5.681,5.7,5.7,0,0,0,5.67,5.706,5.7,5.7,0,0,0,5.694-5.682A5.7,5.7,0,0,0-277.687,166.05Zm-.033,10.122a4.431,4.431,0,0,1-4.4-4.439,4.431,4.431,0,0,1,4.44-4.418,4.43,4.43,0,0,1,4.4,4.439A4.431,4.431,0,0,1-277.719,176.172Z" transform="translate(-85.446 -43.544)" fill="#101928"/>
    <path id="Path_7476" data-name="Path 7476" d="M-221.5,215.467a3.958,3.958,0,0,0-1.686-.531l-.167-.072a1.463,1.463,0,0,0,.165-.025,1.9,1.9,0,0,0,1.338-2.4,1.89,1.89,0,0,0-2.436-1.225,1.9,1.9,0,0,0-1.259,1.975,1.882,1.882,0,0,0,1.583,1.672c-.039.063-.119.033-.167.074a3.927,3.927,0,0,0-1.7.543.575.575,0,0,0-.281.592.627.627,0,0,0,.965.467,3.232,3.232,0,0,1,1.449-.373,3.3,3.3,0,0,1,1.59.4.625.625,0,0,0,.837-.253A.63.63,0,0,0-221.5,215.467Zm-2.789-2.48a.639.639,0,0,1,.64-.618.639.639,0,0,1,.622.636.639.639,0,0,1-.65.628A.64.64,0,0,1-224.288,212.987Z" transform="translate(-139.488 -86.067)" fill="#101928"/>
    <path id="Path_7477" data-name="Path 7477" d="M-221.5,215.467a3.958,3.958,0,0,0-1.686-.531,2.4,2.4,0,0,1-.3-.051.138.138,0,0,0,.133-.021,1.463,1.463,0,0,0,.165-.025,1.9,1.9,0,0,0,1.338-2.4,1.89,1.89,0,0,0-2.436-1.225,1.9,1.9,0,0,0-1.259,1.975,1.882,1.882,0,0,0,1.583,1.672.143.143,0,0,0,.155.018.05.05,0,0,1-.017.008c-.1.03-.2.022-.3.048a3.927,3.927,0,0,0-1.7.543.575.575,0,0,0-.281.592.627.627,0,0,0,.965.467,3.232,3.232,0,0,1,1.449-.373,3.3,3.3,0,0,1,1.59.4.625.625,0,0,0,.837-.253A.63.63,0,0,0-221.5,215.467Zm-2.291-.6h0C-223.808,214.842-223.764,214.857-223.791,214.865Zm-.5-1.878a.639.639,0,0,1,.64-.618.639.639,0,0,1,.622.636.639.639,0,0,1-.65.628A.64.64,0,0,1-224.288,212.987Z" transform="translate(-139.488 -86.067)" fill="#101928"/>
    <path id="Path_7478" data-name="Path 7478" d="M-190.361,277.734a.751.751,0,0,1-.4.042c.048-.041.128-.011.167-.074a.291.291,0,0,1,.167.007l0,0A.624.624,0,0,1-190.361,277.734Z" transform="translate(-172.856 -148.907)" fill="#101928"/>
    <path id="Path_7479" data-name="Path 7479" d="M-180.229,277.772a.544.544,0,0,1-.371-.052l.039-.013h0a.271.271,0,0,1,.165-.006Z" transform="translate(-182.444 -148.904)" fill="#101928"/>
  </g>
</svg>
