<svg xmlns="http://www.w3.org/2000/svg" width="79.992" height="108.524" viewBox="0 0 79.992 108.524">
  <g id="_1" data-name="1" transform="translate(-920 -485.709)">
    <g id="Group_1362" data-name="Group 1362" transform="translate(126.518)">
      <g id="Group_1361" data-name="Group 1361" transform="translate(82.918 199.055)">
        <path id="Path_7504" data-name="Path 7504" d="M790.556,377.272c0,3.02-.006,6.043-.035,9.063a8.434,8.434,0,0,1-6.324,8.534,9.2,9.2,0,0,1-2.6.307q-26.516,0-53.031,0a8.4,8.4,0,0,1-8.638-6.43,9.743,9.743,0,0,1-.29-2.6q-.022-38.705-.021-77.4c0-1.944-.05-3.892.124-5.842a8.369,8.369,0,0,1,7-7.411,3.131,3.131,0,0,0,.455-.145h55.768a9.987,9.987,0,0,1,4.477,1.959,8.534,8.534,0,0,1,3.079,6.859Q790.553,340.713,790.556,377.272Z" transform="translate(0)" fill="#fdedd6"/>
      </g>
      <g id="Group_1360" data-name="Group 1360" transform="translate(1464.875 149.959)">
        <path id="Path_7501" data-name="Path 7501" d="M-654.363,410.675a5.15,5.15,0,0,1,.816-.935q3.116-3.129,6.247-6.247c.883-.877,1.836-.965,2.523-.265s.58,1.632-.309,2.523c-2.165,2.18-4.344,4.347-6.512,6.524a2.011,2.011,0,0,1-1.492.758A1.544,1.544,0,0,1-654.363,410.675Z" transform="translate(-8.872 -48.356)" fill="#101928"/>
        <path id="Path_7502" data-name="Path 7502" d="M-640.362,403.22a1.557,1.557,0,0,1,.1,2.1,5.254,5.254,0,0,1-.516.565q-6.731,6.731-13.459,13.459a2.253,2.253,0,0,1-1.553.857,1.562,1.562,0,0,1-1.3-2.357,3.848,3.848,0,0,1,.612-.734q6.757-6.766,13.523-13.529a4.857,4.857,0,0,1,.5-.452A1.56,1.56,0,0,1-640.362,403.22Z" transform="translate(-4.595 -43.226)" fill="#101928"/>
        <path id="Path_7503" data-name="Path 7503" d="M-644.347,426.934a4.771,4.771,0,0,0-4.84,4.688,4.788,4.788,0,0,0,4.75,4.785,4.784,4.784,0,0,0,4.793-4.741A4.779,4.779,0,0,0-644.347,426.934Zm-.047,6.314a1.6,1.6,0,0,1-1.582-1.582,1.616,1.616,0,0,1,1.489-1.582,1.594,1.594,0,0,1,1.626,1.536A1.592,1.592,0,0,1-644.394,433.248Zm.047-6.314a4.771,4.771,0,0,0-4.84,4.688,4.788,4.788,0,0,0,4.75,4.785,4.784,4.784,0,0,0,4.793-4.741A4.779,4.779,0,0,0-644.347,426.934Zm-.047,6.314a1.6,1.6,0,0,1-1.582-1.582,1.616,1.616,0,0,1,1.489-1.582,1.594,1.594,0,0,1,1.626,1.536A1.592,1.592,0,0,1-644.394,433.248Zm34.922-81.8a8.414,8.414,0,0,0-3.036-6.763,9.848,9.848,0,0,0-4.414-1.932h-54.99a3.08,3.08,0,0,1-.449.143,8.252,8.252,0,0,0-6.9,7.308c-.172,1.923-.122,3.843-.122,5.761q-.018,38.161.02,76.325a9.608,9.608,0,0,0,.286,2.564,8.277,8.277,0,0,0,8.517,6.341q26.146.009,52.292,0a9.07,9.07,0,0,0,2.567-.3,8.316,8.316,0,0,0,6.236-8.415c.029-2.978.035-5.959.035-8.937Q-609.447,387.489-609.471,351.445Zm-62.027-5.458c.382-.032.766-.052,1.151-.052q25.94,0,51.884,0c3.039,0,5.053,1.407,5.659,3.995a17.992,17.992,0,0,1,.131,3.543c.009.271-.087.422-.385.408-.221-.012-.449,0-.673,0h-30.744q-15.372,0-30.747.017c-.723,0-1.029-.134-.953-.927a16.912,16.912,0,0,1,.221-3.339A5.026,5.026,0,0,1-671.5,345.987Zm53.8,92c-.189.015-.382.017-.574.017q-26.133,0-52.265,0c-2.9,0-4.869-1.431-5.484-3.969a6.642,6.642,0,0,1-.137-1.524c-.015-2.112.032-4.228-.023-6.341-.02-.74.2-.889.906-.889q15.468.035,30.936.017c10.216,0,20.432.012,30.648-.023.868,0,1.061.23,1.034,1.058-.061,2.113,0,4.228-.023,6.341A5.066,5.066,0,0,1-617.694,437.992Zm-58.469-79.941c0-.828.166-1.052,1.031-1.052q30.709.044,61.415,0c.833,0,1.055.172,1.052,1.034-.035,10.507-.023,21.015-.023,31.525q0,15.809.02,31.621c0,.8-.184.988-.985.988q-30.757-.039-61.511,0c-.778,0-1-.149-1-.97Q-676.127,389.622-676.163,358.051Zm31.816,68.883a4.771,4.771,0,0,0-4.84,4.688,4.788,4.788,0,0,0,4.75,4.785,4.784,4.784,0,0,0,4.793-4.741A4.779,4.779,0,0,0-644.347,426.934Zm-.047,6.314a1.6,1.6,0,0,1-1.582-1.582,1.616,1.616,0,0,1,1.489-1.582,1.594,1.594,0,0,1,1.626,1.536A1.592,1.592,0,0,1-644.394,433.248Z" transform="translate(8 -7)" fill="#101928"/>
      </g>
    </g>
  </g>
</svg>
