<svg xmlns="http://www.w3.org/2000/svg" width="21.54" height="16.29" viewBox="0 0 21.54 16.29">
  <g id="id-card_1_" data-name="id-card(1)" transform="translate(0.27 0.27)">
    <g id="Group_772" data-name="Group 772" transform="translate(0 0)">
      <path id="Path_3733" data-name="Path 3733" d="M18.813,18.75H2.188A2.191,2.191,0,0,1,0,16.563V5.188A2.191,2.191,0,0,1,2.188,3H18.813A2.191,2.191,0,0,1,21,5.188V16.563A2.191,2.191,0,0,1,18.813,18.75ZM2.188,3.875A1.314,1.314,0,0,0,.875,5.188V16.563a1.314,1.314,0,0,0,1.313,1.313H18.813a1.314,1.314,0,0,0,1.313-1.313V5.188a1.314,1.314,0,0,0-1.312-1.313Z" transform="translate(0 -3)" fill="#101928" stroke="#101928" stroke-width="0.54"/>
    </g>
    <g id="Group_773" data-name="Group 773" transform="translate(4.375 3.5)">
      <path id="Path_3734" data-name="Path 3734" d="M7.188,11.375A2.188,2.188,0,1,1,9.375,9.188,2.191,2.191,0,0,1,7.188,11.375Zm0-3.5A1.313,1.313,0,1,0,8.5,9.188,1.314,1.314,0,0,0,7.188,7.875Z" transform="translate(-5 -7)" fill="#101928" stroke="#101928" stroke-width="0.54"/>
    </g>
    <g id="Group_774" data-name="Group 774" transform="translate(2.625 8.75)">
      <path id="Path_3735" data-name="Path 3735" d="M10.438,16.5A.438.438,0,0,1,10,16.063v-.875a1.314,1.314,0,0,0-1.312-1.313h-3.5a1.314,1.314,0,0,0-1.312,1.313v.875a.438.438,0,0,1-.875,0v-.875A2.191,2.191,0,0,1,5.188,13h3.5a2.191,2.191,0,0,1,2.188,2.188v.875A.438.438,0,0,1,10.438,16.5Z" transform="translate(-3 -13)" fill="#101928" stroke="#101928" stroke-width="0.54"/>
    </g>
    <g id="Group_775" data-name="Group 775" transform="translate(12.25 4.375)">
      <path id="Path_3736" data-name="Path 3736" d="M19.688,8.875h-5.25a.438.438,0,0,1,0-.875h5.25a.438.438,0,0,1,0,.875Z" transform="translate(-14 -8)" fill="#101928" stroke="#101928" stroke-width="0.54"/>
    </g>
    <g id="Group_776" data-name="Group 776" transform="translate(12.25 7.875)">
      <path id="Path_3737" data-name="Path 3737" d="M19.688,12.875h-5.25a.438.438,0,0,1,0-.875h5.25a.438.438,0,0,1,0,.875Z" transform="translate(-14 -12)" fill="#101928" stroke="#101928" stroke-width="0.54"/>
    </g>
    <g id="Group_777" data-name="Group 777" transform="translate(12.25 11.375)">
      <path id="Path_3738" data-name="Path 3738" d="M19.688,16.875h-5.25a.438.438,0,0,1,0-.875h5.25a.438.438,0,0,1,0,.875Z" transform="translate(-14 -16)" fill="#101928" stroke="#101928" stroke-width="0.54"/>
    </g>
  </g>
</svg>
