<svg xmlns="http://www.w3.org/2000/svg" width="22.543" height="22.543" viewBox="0 0 22.543 22.543">
  <g id="reception" transform="translate(0.15 0.15)">
    <g id="Group_795" data-name="Group 795">
      <g id="Group_794" data-name="Group 794">
        <path id="Path_3757" data-name="Path 3757" d="M354.607,5.213A2.607,2.607,0,1,0,352,2.607,2.61,2.61,0,0,0,354.607,5.213Zm0-3.476a.869.869,0,1,1-.869.869A.87.87,0,0,1,354.607,1.738Z" transform="translate(-336.708)" fill="#101928" stroke="#fff9f9" stroke-width="0.3"/>
        <path id="Path_3758" data-name="Path 3758" d="M12.686,158.25H1.738v-6.3h9.21a.869.869,0,1,0,0-1.738H3.3v-3.606a.87.87,0,0,1,.869-.869H7.646a.87.87,0,0,1,.869.869v1a.869.869,0,0,0,1.738,0v-1A2.61,2.61,0,0,0,7.646,144H4.171a2.61,2.61,0,0,0-2.607,2.607v3.606h-.7a.869.869,0,0,0-.869.869v8.906H12.686a.869.869,0,0,0,0-1.738Z" transform="translate(0 -137.744)" fill="#101928" stroke="#fff9f9" stroke-width="0.3"/>
        <path id="Path_3759" data-name="Path 3759" d="M83.607,6.213A2.607,2.607,0,1,0,81,3.607,2.61,2.61,0,0,0,83.607,6.213Zm0-3.476a.869.869,0,1,1-.869.869A.87.87,0,0,1,83.607,2.738Z" transform="translate(-77.481 -0.957)" fill="#101928" stroke="#fff9f9" stroke-width="0.3"/>
        <path id="Path_3760" data-name="Path 3760" d="M318.082,139h-3.476A2.61,2.61,0,0,0,312,141.607v4.735a2.611,2.611,0,0,0,1.738,2.458v5.536a.869.869,0,1,0,1.738,0V148.08a.869.869,0,0,0-.869-.869.87.87,0,0,1-.869-.869v-4.735a.87.87,0,0,1,.869-.869h3.476a.87.87,0,0,1,.869.869v4.735a.87.87,0,0,1-.869.869.869.869,0,0,0-.869.869v6.256a.869.869,0,1,0,1.738,0V148.8a2.611,2.611,0,0,0,1.738-2.458v-4.735A2.61,2.61,0,0,0,318.082,139Z" transform="translate(-298.445 -132.961)" fill="#101928" stroke="#fff9f9" stroke-width="0.3"/>
      </g>
    </g>
  </g>
</svg>
