<svg xmlns="http://www.w3.org/2000/svg" width="63.263" height="63.263" viewBox="0 0 63.263 63.263">
  <path id="leftarrow" d="M43.555,45.108c-8.611-.884-17.086-3.428-23.928-8.887a35.132,35.132,0,0,1-10.8-15.35A45.57,45.57,0,0,1,6.16,7.5c-.058-1.064-.093-2.144-.078-3.22-1.456,2.579-2.908,5.168-4.5,7.653C1,12.835-.448,12,.137,11.09,2.36,7.63,4.3,3.961,6.37.4A.845.845,0,0,1,7.812.4L15.048,10.98c.61.891-.838,1.725-1.442.843L7.761,3.281A42.072,42.072,0,0,0,11.4,22.793,32.976,32.976,0,0,0,21.834,35.826c6.292,4.637,14.03,6.823,21.72,7.611C44.615,43.547,44.625,45.217,43.555,45.108Z" transform="translate(0 31.363) rotate(-45)" fill="#db8a8a"/>
</svg>
