<svg id="Primary_Logo_Multiple_Colors_" data-name="Primary Logo (Multiple Colors)" xmlns="http://www.w3.org/2000/svg" xmlns:xlink="http://www.w3.org/1999/xlink" viewBox="0 0 325.69 111.62"><defs><style>.cls-1{fill:none;clip-rule:evenodd;}.cls-2{fill:#1f1a17;}.cls-3{fill:#cf9191;}.cls-3,.cls-8{fill-rule:evenodd;}.cls-4{clip-path:url(#clip-path);}.cls-5{fill:url(#linear-gradient);}.cls-6{clip-path:url(#clip-path-2);}.cls-7{fill:url(#linear-gradient-2);}.cls-8{fill:#006605;}</style><clipPath id="clip-path" transform="translate(0 27.38)"><path class="cls-1" d="M197.19,6.93A33.48,33.48,0,0,1,217.64,0,33.82,33.82,0,0,1,235,4.78l.58.38a24.27,24.27,0,0,1,3.31,2.55,16.42,16.42,0,0,1,5,11.77A20,20,0,0,1,236.83,35a15.72,15.72,0,0,1-11.75,3.47h.11a15.57,15.57,0,0,0,15.23-18.66C238.35,9.73,226.75,5,217.64,5a28.62,28.62,0,0,0-25.48,41.63c-7.54-14.58-3.95-32.84,5-39.74"/></clipPath><linearGradient id="linear-gradient" x1="-74.88" y1="273.12" x2="-74.38" y2="273.12" gradientTransform="matrix(-84.6, 0, 0, -79.14, -6103.14, 21639.09)" gradientUnits="userSpaceOnUse"><stop offset="0" stop-color="#8dcafe"/><stop offset="1" stop-color="#6c9bd9"/></linearGradient><clipPath id="clip-path-2" transform="translate(0 27.38)"><path class="cls-1" d="M251.29,33.65a33.36,33.36,0,0,1-1.12,8.65c-2.82,10.65-18.92,24.77-39.94,19a28.63,28.63,0,0,0,36-27.64c0-4,5-4,5,0"/></clipPath><linearGradient id="linear-gradient-2" x1="-74.83" y1="273.01" x2="-74.43" y2="273.01" gradientTransform="matrix(-65.8, 0, 0, -64.18, -4679.75, 17569.65)" gradientUnits="userSpaceOnUse"><stop offset="0" stop-color="red"/><stop offset="1" stop-color="#961c1c"/></linearGradient></defs><title>logo</title><path class="cls-2" d="M173.76,12.65V25.4a7.66,7.66,0,0,0-2.62-1.78A8.09,8.09,0,0,0,168,23a9.1,9.1,0,0,0-5,1.36,8.74,8.74,0,0,0-3.24,3.87,14.83,14.83,0,0,0-1.16,6.11v8.15a14.87,14.87,0,0,0,1.2,6.2A8.6,8.6,0,0,0,168,54a7.68,7.68,0,0,0,2.61-.47,9.15,9.15,0,0,0,2.29-1.22,8.65,8.65,0,0,0,1.78-1.74l.39,2.75H179V12.65ZM148.32,44a7.23,7.23,0,0,1-.79,2.63,3.46,3.46,0,0,1-1.59,1.53,5.89,5.89,0,0,1-2.62.5,4.26,4.26,0,0,1-3.47-1.43,6.81,6.81,0,0,1-1.24-4.47V40.56h15.1V34a13,13,0,0,0-1.27-6,8.71,8.71,0,0,0-3.58-3.75A11.48,11.48,0,0,0,143.32,23a11,11,0,0,0-5.41,1.29,8.77,8.77,0,0,0-3.5,3.75,13.31,13.31,0,0,0-1.25,6V42.8a13.75,13.75,0,0,0,1.23,6,8.67,8.67,0,0,0,3.47,3.78,10.55,10.55,0,0,0,5.35,1.31,11.91,11.91,0,0,0,5.42-1.16,8.83,8.83,0,0,0,3.59-3.37,12.61,12.61,0,0,0,1.6-5.35Zm-4.94-15.95A4.61,4.61,0,0,1,147,29.5a6.53,6.53,0,0,1,1.29,4.43v2.53h-9.71V33.93a6.58,6.58,0,0,1,1.27-4.43A4.36,4.36,0,0,1,143.38,28.09ZM116.14,53.3h6.07l8.14-29.59h-5.62l-5.52,23.08-5.58-23.08H108Zm-20.39-26-.62-3.6H91.26V53.3H96.7V37.17c.14-4.22,2-8.74,6.07-8.74h2.43V23.71h-2.35C100,23.71,97.48,24.32,95.75,27.31ZM80.81,44A7.43,7.43,0,0,1,80,46.67a3.56,3.56,0,0,1-1.59,1.53,5.94,5.94,0,0,1-2.62.5,4.29,4.29,0,0,1-3.48-1.43A6.87,6.87,0,0,1,71.1,42.8V40.56H86.2V34a13,13,0,0,0-1.27-6,8.69,8.69,0,0,0-3.57-3.75A11.51,11.51,0,0,0,75.82,23a11,11,0,0,0-5.41,1.29A8.65,8.65,0,0,0,66.91,28a13.17,13.17,0,0,0-1.26,6V42.8a13.61,13.61,0,0,0,1.24,6,8.59,8.59,0,0,0,3.46,3.78,10.6,10.6,0,0,0,5.35,1.31,11.88,11.88,0,0,0,5.42-1.16,8.79,8.79,0,0,0,3.6-3.37A12.61,12.61,0,0,0,86.32,44ZM75.87,28.09a4.61,4.61,0,0,1,3.65,1.41,6.53,6.53,0,0,1,1.29,4.43v2.53H71.1V33.93a6.63,6.63,0,0,1,1.27-4.43A4.36,4.36,0,0,1,75.87,28.09ZM51.87,54a12,12,0,0,0,5.27-1.09,8,8,0,0,0,3.37-3,8.87,8.87,0,0,0,1.18-4.58,8.68,8.68,0,0,0-.8-3.83,8,8,0,0,0-2.09-2.61A14.08,14.08,0,0,0,56,37.11c-1-.47-2.07-.9-3.11-1.28s-2-.76-2.85-1.16a6.92,6.92,0,0,1-2.09-1.39,2.75,2.75,0,0,1-.8-2,3,3,0,0,1,1.1-2.46,4.74,4.74,0,0,1,3-.91,4.44,4.44,0,0,1,3.34,1.19,4.8,4.8,0,0,1,1.15,3.31h5.34a11.2,11.2,0,0,0-1.26-4.9,8,8,0,0,0-3.27-3.31A10.84,10.84,0,0,0,51.25,23a11.86,11.86,0,0,0-5,1,7.74,7.74,0,0,0-3.32,2.85,8.11,8.11,0,0,0-1.18,4.39,8,8,0,0,0,.8,3.65,7.65,7.65,0,0,0,2.08,2.5,13.18,13.18,0,0,0,2.84,1.74c1,.47,2.06.91,3.09,1.3s2,.8,2.85,1.22a7,7,0,0,1,2.07,1.5,3.07,3.07,0,0,1,.81,2.12A3.41,3.41,0,0,1,55.08,48a5.09,5.09,0,0,1-3.32,1,5.85,5.85,0,0,1-2.84-.64,4,4,0,0,1-1.68-1.7,5.35,5.35,0,0,1-.59-2.43H41.26A10.56,10.56,0,0,0,42,48a9.33,9.33,0,0,0,2.06,3.12,9.63,9.63,0,0,0,3.33,2.11A12.72,12.72,0,0,0,51.87,54Zm-20-10a7.43,7.43,0,0,1-.79,2.63,3.51,3.51,0,0,1-1.59,1.53,5.89,5.89,0,0,1-2.62.5,4.26,4.26,0,0,1-3.47-1.43,6.81,6.81,0,0,1-1.25-4.47V40.56H37.3V34A12.91,12.91,0,0,0,36,28a8.69,8.69,0,0,0-3.57-3.75A11.48,11.48,0,0,0,26.91,23a11,11,0,0,0-5.41,1.29A8.65,8.65,0,0,0,18,28a13.31,13.31,0,0,0-1.25,6V42.8a13.75,13.75,0,0,0,1.23,6,8.71,8.71,0,0,0,3.46,3.78,10.61,10.61,0,0,0,5.36,1.31,11.94,11.94,0,0,0,5.42-1.16,8.83,8.83,0,0,0,3.59-3.37A12.61,12.61,0,0,0,37.41,44ZM27,28.09a4.58,4.58,0,0,1,3.64,1.41,6.47,6.47,0,0,1,1.3,4.43v2.53H22.19V33.93a6.58,6.58,0,0,1,1.28-4.43A4.36,4.36,0,0,1,27,28.09ZM4.49,27.31l-.62-3.6H0V53.3H5.45V37.17c.14-4.22,2-8.74,6.06-8.74h2.43V23.71H11.6C8.75,23.71,6.22,24.32,4.49,27.31ZM290.21,48.7a4.56,4.56,0,0,1-3.59-1.41,6.81,6.81,0,0,1-1.3-4.54V34.21a6.8,6.8,0,0,1,1.3-4.54,4.56,4.56,0,0,1,3.59-1.41,4.62,4.62,0,0,1,3.63,1.41,6.74,6.74,0,0,1,1.31,4.54v8.54a6.76,6.76,0,0,1-1.31,4.54A4.62,4.62,0,0,1,290.21,48.7Zm-18.76-25-3.37,11.4L266,42.3l-2.25-7.25-3.76-11.34H254.1l9.49,26.73-1.23,4.21a10.75,10.75,0,0,1-.86,2.12,3.86,3.86,0,0,1-1.3,1.41,3.46,3.46,0,0,1-1.94.51H256.4V64h2.92a6.6,6.6,0,0,0,3.79-1.09,8.48,8.48,0,0,0,2.57-3,22.74,22.74,0,0,0,1.73-4.32L277,23.71Zm48.8,0V42a10,10,0,0,1-.63,3.72,5,5,0,0,1-1.74,2.32,4.51,4.51,0,0,1-2.69.81,3.64,3.64,0,0,1-2.34-.7,4.23,4.23,0,0,1-1.37-2.23A14.12,14.12,0,0,1,311,42V23.71h-5.45V42.3a18.77,18.77,0,0,0,1,6.63,8,8,0,0,0,2.87,3.86A7.75,7.75,0,0,0,313.9,54,8.65,8.65,0,0,0,318.27,53a8.19,8.19,0,0,0,3-3l.56,3.31h3.87V23.71ZM290.21,54a11.44,11.44,0,0,0,5.57-1.3,8.77,8.77,0,0,0,3.6-3.8,13.69,13.69,0,0,0,1.27-6.13V34.21a13.66,13.66,0,0,0-1.27-6.13,8.71,8.71,0,0,0-3.6-3.8,12.52,12.52,0,0,0-11.11,0,8.67,8.67,0,0,0-3.58,3.8,13.66,13.66,0,0,0-1.27,6.13v8.54a13.69,13.69,0,0,0,1.27,6.13,8.72,8.72,0,0,0,3.58,3.8A11.34,11.34,0,0,0,290.21,54ZM173.76,42.52a9,9,0,0,1-.63,3.53,4.35,4.35,0,0,1-4.2,2.76,4.2,4.2,0,0,1-3.5-1.52,7.63,7.63,0,0,1-1.28-4.82V34.32a7.45,7.45,0,0,1,1.21-4.68,4.25,4.25,0,0,1,3.57-1.49,4.38,4.38,0,0,1,2.57.75A4.78,4.78,0,0,1,173.17,31a8.46,8.46,0,0,1,.59,3.3Z" transform="translate(0 27.38)"/><path class="cls-3" d="M250.17,42.3a33.65,33.65,0,1,1-53-35.37c-7,5.37-12.4,24.66-5.29,39.21l.09.19.12.23.27.53a28.71,28.71,0,0,0,17.1,14l.85.24c19.81,5.3,37.36-9.64,39.84-19" transform="translate(0 27.38)"/><g class="cls-4"><rect class="cls-5" x="176.67" y="-12.54" width="75.27" height="71.74" transform="translate(22.96 149.99) rotate(-33.64)"/></g><g class="cls-6"><rect class="cls-7" x="203.81" y="22.14" width="53.92" height="52.44" transform="translate(4.75 142.87) rotate(-28.38)"/></g><path class="cls-8" d="M235.09,4.83c5.07,3.14,9,7.82,10.26,14a20.57,20.57,0,0,1-20.16,24.71h-.11V53.3h-5.33V43.55h-3.46a3,3,0,0,1-.43,0h-10V40.61L214,14h5.44l-7.58,24.54h4a3,3,0,0,1,.44,0h3.52l.56-12.83h4.71V38.51h.11c.42,0,.84,0,1.25,0,14.39-1,21.56-17.58,14.22-28.37a19.84,19.84,0,0,0-5.57-5.26" transform="translate(0 27.38)"/></svg>