<svg xmlns="http://www.w3.org/2000/svg" width="21.543" height="22.26" viewBox="0 0 21.543 22.26">
  <g id="profile" transform="translate(0.25 0.25)">
    <g id="Group_789" data-name="Group 789" transform="translate(3.627)">
      <path id="Path_3753" data-name="Path 3753" d="M8.533,9.067a4.533,4.533,0,1,1,4.533-4.533A4.539,4.539,0,0,1,8.533,9.067Zm0-8.16A3.627,3.627,0,1,0,12.16,4.533,3.63,3.63,0,0,0,8.533.907Z" transform="translate(-4)" fill="#101928" stroke="#101928" stroke-width="0.5"/>
    </g>
    <g id="Group_790" data-name="Group 790" transform="translate(0 10.88)">
      <path id="Path_3754" data-name="Path 3754" d="M7.707,20.16H.453A.454.454,0,0,1,0,19.707V16.08A4.085,4.085,0,0,1,4.08,12H9.52a.453.453,0,0,1,0,.907H4.08A3.177,3.177,0,0,0,.907,16.08v3.173h6.8a.453.453,0,1,1,0,.907Z" transform="translate(0 -12)" fill="#101928" stroke="#101928" stroke-width="0.5"/>
    </g>
    <g id="Group_793" data-name="Group 793" transform="translate(9.827 9.974)">
      <g id="Group_791" data-name="Group 791" transform="translate(3.32 3.626)">
        <path id="Path_3755" data-name="Path 3755" d="M16.767,19.533a2.267,2.267,0,1,1,2.267-2.267A2.27,2.27,0,0,1,16.767,19.533Zm0-3.627a1.36,1.36,0,1,0,1.36,1.36A1.362,1.362,0,0,0,16.767,15.907Z" transform="translate(-14.5 -15)" fill="#101928" stroke="#101928" stroke-width="0.5"/>
      </g>
      <g id="Group_792" data-name="Group 792">
        <path id="Path_3756" data-name="Path 3756" d="M17.148,22.787H15.7a.9.9,0,0,1-.9-.817l-.115-1.152a4.258,4.258,0,0,1-.784-.456l-1.059.478a.9.9,0,0,1-1.158-.374l-.723-1.252a.9.9,0,0,1,.256-1.19l.933-.671a3.443,3.443,0,0,1,0-.919l-.933-.671a.9.9,0,0,1-.256-1.19l.723-1.252a.9.9,0,0,1,1.158-.374l1.059.478a4.258,4.258,0,0,1,.784-.456l.115-1.152A.9.9,0,0,1,15.7,11h1.446a.9.9,0,0,1,.9.817l.115,1.152a4.249,4.249,0,0,1,.784.456l1.059-.478a.9.9,0,0,1,1.158.374l.723,1.252a.9.9,0,0,1-.256,1.19l-.933.671a3.443,3.443,0,0,1,0,.919l.933.671a.9.9,0,0,1,.256,1.19l-.722,1.251a.9.9,0,0,1-1.158.374l-1.059-.478a4.258,4.258,0,0,1-.784.456l-.116,1.153a.9.9,0,0,1-.9.816Zm-3.184-3.4a.453.453,0,0,1,.291.106,3.376,3.376,0,0,0,1.009.587.454.454,0,0,1,.3.381L15.7,21.88h1.446l.142-1.424a.454.454,0,0,1,.3-.381,3.4,3.4,0,0,0,1.009-.587.453.453,0,0,1,.477-.065l1.309.591.723-1.252-1.159-.832a.456.456,0,0,1-.182-.447,2.872,2.872,0,0,0,0-1.175.455.455,0,0,1,.182-.447l1.159-.832-.723-1.252-1.309.59a.454.454,0,0,1-.478-.065,3.343,3.343,0,0,0-1.009-.587.454.454,0,0,1-.3-.381l-.142-1.427H15.7l-.142,1.424a.454.454,0,0,1-.3.381,3.4,3.4,0,0,0-1.009.587.451.451,0,0,1-.477.065l-1.309-.591-.723,1.252,1.159.832a.456.456,0,0,1,.182.447,2.871,2.871,0,0,0,0,1.175.455.455,0,0,1-.182.447l-1.159.832.723,1.252,1.309-.59a.474.474,0,0,1,.186-.038Z" transform="translate(-10.838 -11.001)" fill="#101928" stroke="#101928" stroke-width="0.5"/>
      </g>
    </g>
  </g>
</svg>
