<svg xmlns="http://www.w3.org/2000/svg" width="19.647" height="18.017" viewBox="0 0 19.647 18.017">
  <g id="megaphone_1_" data-name="megaphone (1)" transform="translate(0.15 0.158)">
    <path id="Path_3749" data-name="Path 3749" d="M426.442,296.944a.567.567,0,1,0-.8.8l1.143,1.143a.567.567,0,0,0,.8-.8Z" transform="translate(-409.397 -286.383)" fill="#101928" stroke="#101928" stroke-width="0.3"/>
    <path id="Path_3750" data-name="Path 3750" d="M426.041,119.056a.565.565,0,0,0,.4-.166l1.143-1.143a.567.567,0,0,0-.8-.8l-1.143,1.143a.567.567,0,0,0,.4.968Z" transform="translate(-409.397 -113.185)" fill="#101928" stroke="#101928" stroke-width="0.3"/>
    <path id="Path_3751" data-name="Path 3751" d="M441.391,221.907h-1.617a.567.567,0,1,0,0,1.134h1.617a.567.567,0,1,0,0-1.134Z" transform="translate(-422.611 -214.341)" fill="#101928" stroke="#101928" stroke-width="0.3"/>
    <path id="Path_3752" data-name="Path 3752" d="M15.087,21.747a.567.567,0,0,0-.573.011L8.022,25.734H5.14a2.215,2.215,0,0,0-1.65.605,2.286,2.286,0,0,0-.421.537H1.643A1.645,1.645,0,0,0,0,28.519V31.1A1.645,1.645,0,0,0,1.643,32.74H3.067a2.471,2.471,0,0,0,.992.97L2.083,37.131a.567.567,0,0,0,.213.778l2.5,1.4a.566.566,0,0,0,.768-.211l2.82-4.884,6.134,3.645a.567.567,0,0,0,.856-.487V22.242a.567.567,0,0,0-.29-.495ZM1.643,31.607a.51.51,0,0,1-.51-.51V28.519a.51.51,0,0,1,.51-.51H2.764c0,.008,0,.017,0,.025v3.546c0,.008,0,.017,0,.025ZM3.9,28.035a1.2,1.2,0,0,1,.37-.871,1.092,1.092,0,0,1,.823-.3H7.615v6H5.143A1.318,1.318,0,0,1,3.9,31.581Zm.967,10.014L3.352,37.2l1.813-3.14A.568.568,0,0,0,5.194,34H7.2Zm9.379-1.671L8.749,33.113v-6.5l5.494-3.365Z" transform="translate(0 -21.675)" fill="#101928" stroke="#101928" stroke-width="0.3"/>
  </g>
</svg>
