<svg xmlns="http://www.w3.org/2000/svg" width="17.797" height="18.365" viewBox="0 0 17.797 18.365">
  <g id="news" transform="translate(0.1 0.1)">
    <path id="Path_3743" data-name="Path 3743" d="M15.549,0H6.467A3.031,3.031,0,0,0,3.441,3.026V15.139a.607.607,0,0,0,1.209,0V3.026A1.817,1.817,0,0,1,6.467,1.209h9.083a1.817,1.817,0,0,1,1.817,1.817V15.139a1.817,1.817,0,0,1-1.817,1.817H4.048a1.817,1.817,0,0,1-1.817-1.817V3.026A.616.616,0,1,0,1,3.026V15.139a3.031,3.031,0,0,0,3.048,3.026h11.5A3.031,3.031,0,0,0,18.6,15.139V3.026A3.031,3.031,0,0,0,15.549,0Z" transform="translate(-1 0)" fill="#101928" stroke="#101928" stroke-width="0.2"/>
    <path id="Path_3744" data-name="Path 3744" d="M19.205,7.607H10.123a.607.607,0,1,1,0-1.209h9.083a.607.607,0,1,1,0,1.209Z" transform="translate(-4.656 -2.765)" fill="#101928" stroke="#101928" stroke-width="0.2"/>
    <path id="Path_3745" data-name="Path 3745" d="M19.295,24.687H10.212a.607.607,0,0,1,0-1.209h9.083a.607.607,0,1,1,0,1.209Z" transform="translate(-4.746 -10.149)" fill="#101928" stroke="#101928" stroke-width="0.2"/>
    <path id="Path_3746" data-name="Path 3746" d="M23.449,14.017H19.822a.607.607,0,0,1,0-1.209h3.627a.607.607,0,1,1,0,1.209Z" transform="translate(-8.9 -5.536)" fill="#101928" stroke="#101928" stroke-width="0.2"/>
    <path id="Path_3747" data-name="Path 3747" d="M23.449,19.347H19.822a.607.607,0,0,1,0-1.209h3.627a.607.607,0,1,1,0,1.209Z" transform="translate(-8.9 -7.84)" fill="#101928" stroke="#101928" stroke-width="0.2"/>
    <path id="Path_3748" data-name="Path 3748" d="M13.22,17.19H10.779A1.215,1.215,0,0,1,9.57,15.98V12.949a1.215,1.215,0,0,1,1.209-1.209H13.22a1.215,1.215,0,0,1,1.209,1.209V15.98A1.215,1.215,0,0,1,13.22,17.19Zm-2.441-4.24V15.98H13.22V12.949Z" transform="translate(-4.705 -5.076)" fill="#101928" stroke="#101928" stroke-width="0.2"/>
  </g>
</svg>
