<svg xmlns="http://www.w3.org/2000/svg" width="121.799" height="102.898" viewBox="0 0 121.799 102.898">
  <g id="_2" data-name="2" transform="translate(-1273.102 -486.089)">
    <g id="Group_1346" data-name="Group 1346" transform="translate(1245.819 439.898)">
      <path id="Path_7452" data-name="Path 7452" d="M149.082,198.368v24.3c-.754,1.632-2.041,2.117-3.8,2.115q-44.993-.054-89.988-.026c-1.843,0-2.961-.73-3.316-2.193a4.825,4.825,0,0,1-.09-1.13q-.007-10.915,0-21.832c0-2.224,1.094-3.321,3.314-3.321q45.282,0,90.559-.021A3.421,3.421,0,0,1,149.082,198.368Z" transform="translate(0 -110.03)" fill="#fdedd6"/>
      <path id="Path_7453" data-name="Path 7453" d="M112.028,368.619c-.437-.383-1-.277-1.5-.337A49.1,49.1,0,0,1,72.261,340.7c-.1-.216-.309-.406-.231-.75h.724c6.292,0,12.585.011,18.877-.017.655,0,.9.166,1.066.819a54.479,54.479,0,0,0,7.368,17.618,24.125,24.125,0,0,0,9.653,8.854,11.549,11.549,0,0,0,3.229,1.043c.132.365-.293.174-.349.35Z" transform="translate(-15.344 -219.529)" fill="#fdedd6"/>
      <path id="Path_7454" data-name="Path 7454" d="M268.147,368.276a16.8,16.8,0,0,0,8.3-4.486c4.649-4.316,7.5-9.769,9.7-15.614a63.471,63.471,0,0,0,2.282-7.5c.1-.416.164-.731.75-.729,6.577.024,13.154.016,19.731.02a.969.969,0,0,1,.224.074,42.242,42.242,0,0,1-3.432,6.28,49.174,49.174,0,0,1-20.028,17.609,46.987,46.987,0,0,1-16.422,4.515c-.193.017-.458-.123-.564.184h-.38C268.223,368.524,268.01,368.481,268.147,368.276Z" transform="translate(-164.79 -219.536)" fill="#fdedd6"/>
      <path id="Path_7455" data-name="Path 7455" d="M242.633,459.379c-.01-.243.284-.183.349-.35a1.248,1.248,0,0,1,.98.35Z" transform="translate(-145.379 -310.289)" fill="#fdedd6"/>
      <path id="Path_7456" data-name="Path 7456" d="M264.552,459.051l.162.35h-1.329A2.082,2.082,0,0,1,264.552,459.051Z" transform="translate(-161.195 -310.311)" fill="#fdedd6"/>
      <path id="Path_7457" data-name="Path 7457" d="M113.055,52.45a16.812,16.812,0,0,0-8.3,4.492C99.982,61.38,97.1,67,94.887,73.013a62.541,62.541,0,0,0-2.117,7.065c-.1.425-.195.709-.771.706-6.612-.025-13.225-.016-19.847-.016,5.154-12.643,19.911-26.932,40.155-28.505C112.577,52.242,112.909,51.976,113.055,52.45Z" transform="translate(-15.451 -0.214)" fill="#fdedd6"/>
      <path id="Path_7458" data-name="Path 7458" d="M269.051,52.261a48.769,48.769,0,0,1,40.2,28.421c-.22.169-.478.079-.712.079-6.3.006-12.593-.007-18.889.022-.7,0-.939-.2-1.109-.889a54.358,54.358,0,0,0-7.344-17.539,24.147,24.147,0,0,0-9.657-8.862,11.64,11.64,0,0,0-3.23-1.045C268.45,51.971,268.781,52.24,269.051,52.261Z" transform="translate(-164.945 -0.212)" fill="#fdedd6"/>
      <path id="Path_7459" data-name="Path 7459" d="M197.426,77.906V94.719c0,1.676,0,3.352,0,5.027,0,.364.044.651-.508.648-4.678-.021-9.356-.012-14.1-.012a53.051,53.051,0,0,1,2.486-7.748,35.241,35.241,0,0,1,6.389-10.765A13.879,13.879,0,0,1,197.426,77.906Z" transform="translate(-99.793 -19.829)" fill="#fdedd6"/>
      <path id="Path_7460" data-name="Path 7460" d="M282.763,100.423c-4.745,0-9.391-.005-14.038.009-.434,0-.6-.087-.6-.564.015-7.269.01-14.538.01-21.908a13.415,13.415,0,0,1,5.679,3.892,35.175,35.175,0,0,1,6.449,10.838A57.485,57.485,0,0,1,282.763,100.423Z" transform="translate(-164.811 -19.869)" fill="#fdedd6"/>
      <path id="Path_7461" data-name="Path 7461" d="M197.346,362.424a13.551,13.551,0,0,1-5.651-3.9,35.141,35.141,0,0,1-6.408-10.754,55.518,55.518,0,0,1-2.512-7.8h6.379c2.5,0,5,.013,7.493-.01.525-.005.765.046.763.69-.027,7.114-.017,14.228-.019,21.342C197.392,362.11,197.368,362.228,197.346,362.424Z" transform="translate(-99.76 -219.549)" fill="#fdedd6"/>
      <path id="Path_7462" data-name="Path 7462" d="M282.751,339.947c-1.7,6.318-3.908,12.29-7.96,17.414a14.893,14.893,0,0,1-6.17,4.88.519.519,0,0,1-.506.036v-.7c0-6.924.012-13.849-.018-20.773,0-.712.169-.877.875-.872C273.523,339.964,278.075,339.947,282.751,339.947Z" transform="translate(-164.786 -219.524)" fill="#fdedd6"/>
      <path id="Path_7463" data-name="Path 7463" d="M266.312,52.068c-.233.124-.543-.058-.746.187-.342.108-.557-.192-.855-.256A2.73,2.73,0,0,1,266.312,52.068Z" transform="translate(-162.207 -0.019)" fill="#fdedd6"/>
      <path id="Path_7464" data-name="Path 7464" d="M241.712,52.235c-.2-.244-.514-.063-.747-.187a2.921,2.921,0,0,1,1.454-.135A.613.613,0,0,1,241.712,52.235Z" transform="translate(-144.108)" fill="#fdedd6"/>
    </g>
    <g id="Group_1352" data-name="Group 1352" transform="translate(2151.942 127.373)">
      <g id="Group_1351" data-name="Group 1351" transform="translate(-878.84 358.716)">
        <g id="Group_1350" data-name="Group 1350" transform="translate(0 0)">
          <g id="Group_1349" data-name="Group 1349">
            <g id="Group_1348" data-name="Group 1348">
              <g id="Group_1347" data-name="Group 1347">
                <path id="Path_7465" data-name="Path 7465" d="M-848.492,396.7a2.873,2.873,0,0,0-1.053-1.036c-1.16-.579-2.334-.1-3.062,1.25-.431.8-.841,1.63-1.239,2.435-.262.535-.527,1.069-.8,1.6-.013.028-.026.061-.039.1a1.454,1.454,0,0,1-1.025.977l-.59.153-.282-.54c-.511-.988-1.014-2-1.5-2.975-.2-.406-.4-.813-.608-1.22a5.4,5.4,0,0,0-.763-1.228,2.119,2.119,0,0,0-1.565-.782h0a2.128,2.128,0,0,0-1.567.778,5.339,5.339,0,0,0-.763,1.224l-.4.809c-.579,1.165-1.18,2.371-1.8,3.6l-.431.846-.734-.6a3.317,3.317,0,0,1-.9-1.224c-.028-.055-.055-.109-.081-.162-.269-.522-.531-1.056-.785-1.571-.411-.839-.837-1.7-1.3-2.524a2,2,0,0,0-2.063-1.15,1.683,1.683,0,0,0-1.676,1.469l-.308-.031.3,1.117a9.321,9.321,0,0,0,.684,1.652l.063.129c.66,1.348,1.372,2.706,2.061,4.017.789,1.5,1.6,3.044,2.347,4.6a3.472,3.472,0,0,0,.6.879,2.09,2.09,0,0,0,1.512.73h0a2.112,2.112,0,0,0,1.526-.732,4.173,4.173,0,0,0,.691-1.04c.568-1.145,1.241-2.494,1.921-3.827.011-.024.022-.05.033-.077a1.412,1.412,0,0,1,1.008-.927l.586-.14.273.535c.435.846.868,1.716,1.285,2.555q.387.777.774,1.55l.013.024a6.157,6.157,0,0,0,.7,1.178,2.221,2.221,0,0,0,1.683.9,2.229,2.229,0,0,0,1.681-.935,5.068,5.068,0,0,0,.544-.907l2.457-4.911c.19-.38.38-.763.568-1.143.647-1.3,1.318-2.653,2.022-3.934l.459-.835Zm0,0a2.873,2.873,0,0,0-1.053-1.036c-1.16-.579-2.334-.1-3.062,1.25-.431.8-.841,1.63-1.239,2.435-.262.535-.527,1.069-.8,1.6-.013.028-.026.061-.039.1a1.454,1.454,0,0,1-1.025.977l-.59.153-.282-.54c-.511-.988-1.014-2-1.5-2.975-.2-.406-.4-.813-.608-1.22a5.4,5.4,0,0,0-.763-1.228,2.119,2.119,0,0,0-1.565-.782h0a2.128,2.128,0,0,0-1.567.778,5.339,5.339,0,0,0-.763,1.224l-.4.809c-.579,1.165-1.18,2.371-1.8,3.6l-.431.846-.734-.6a3.317,3.317,0,0,1-.9-1.224c-.028-.055-.055-.109-.081-.162-.269-.522-.531-1.056-.785-1.571-.411-.839-.837-1.7-1.3-2.524a2,2,0,0,0-2.063-1.15,1.683,1.683,0,0,0-1.676,1.469l-.308-.031.3,1.117a9.321,9.321,0,0,0,.684,1.652l.063.129c.66,1.348,1.372,2.706,2.061,4.017.789,1.5,1.6,3.044,2.347,4.6a3.472,3.472,0,0,0,.6.879,2.09,2.09,0,0,0,1.512.73h0a2.112,2.112,0,0,0,1.526-.732,4.173,4.173,0,0,0,.691-1.04c.568-1.145,1.241-2.494,1.921-3.827.011-.024.022-.05.033-.077a1.412,1.412,0,0,1,1.008-.927l.586-.14.273.535c.435.846.868,1.716,1.285,2.555q.387.777.774,1.55l.013.024a6.157,6.157,0,0,0,.7,1.178,2.221,2.221,0,0,0,1.683.9,2.229,2.229,0,0,0,1.681-.935,5.068,5.068,0,0,0,.544-.907l2.457-4.911c.19-.38.38-.763.568-1.143.647-1.3,1.318-2.653,2.022-3.934l.459-.835Zm0,0a2.873,2.873,0,0,0-1.053-1.036c-1.16-.579-2.334-.1-3.062,1.25-.431.8-.841,1.63-1.239,2.435-.262.535-.527,1.069-.8,1.6-.013.028-.026.061-.039.1a1.454,1.454,0,0,1-1.025.977l-.59.153-.282-.54c-.511-.988-1.014-2-1.5-2.975-.2-.406-.4-.813-.608-1.22a5.4,5.4,0,0,0-.763-1.228,2.119,2.119,0,0,0-1.565-.782h0a2.128,2.128,0,0,0-1.567.778,5.339,5.339,0,0,0-.763,1.224l-.4.809c-.579,1.165-1.18,2.371-1.8,3.6l-.431.846-.734-.6a3.317,3.317,0,0,1-.9-1.224c-.028-.055-.055-.109-.081-.162-.269-.522-.531-1.056-.785-1.571-.411-.839-.837-1.7-1.3-2.524a2,2,0,0,0-2.063-1.15,1.683,1.683,0,0,0-1.676,1.469l-.308-.031.3,1.117a9.321,9.321,0,0,0,.684,1.652l.063.129c.66,1.348,1.372,2.706,2.061,4.017.789,1.5,1.6,3.044,2.347,4.6a3.472,3.472,0,0,0,.6.879,2.09,2.09,0,0,0,1.512.73h0a2.112,2.112,0,0,0,1.526-.732,4.173,4.173,0,0,0,.691-1.04c.568-1.145,1.241-2.494,1.921-3.827.011-.024.022-.05.033-.077a1.412,1.412,0,0,1,1.008-.927l.586-.14.273.535c.435.846.868,1.716,1.285,2.555q.387.777.774,1.55l.013.024a6.157,6.157,0,0,0,.7,1.178,2.221,2.221,0,0,0,1.683.9,2.229,2.229,0,0,0,1.681-.935,5.068,5.068,0,0,0,.544-.907l2.457-4.911c.19-.38.38-.763.568-1.143.647-1.3,1.318-2.653,2.022-3.934l.459-.835Zm0,0a2.873,2.873,0,0,0-1.053-1.036c-1.16-.579-2.334-.1-3.062,1.25-.431.8-.841,1.63-1.239,2.435-.262.535-.527,1.069-.8,1.6-.013.028-.026.061-.039.1a1.454,1.454,0,0,1-1.025.977l-.59.153-.282-.54c-.511-.988-1.014-2-1.5-2.975-.2-.406-.4-.813-.608-1.22a5.4,5.4,0,0,0-.763-1.228,2.119,2.119,0,0,0-1.565-.782h0a2.128,2.128,0,0,0-1.567.778,5.339,5.339,0,0,0-.763,1.224l-.4.809c-.579,1.165-1.18,2.371-1.8,3.6l-.431.846-.734-.6a3.317,3.317,0,0,1-.9-1.224c-.028-.055-.055-.109-.081-.162-.269-.522-.531-1.056-.785-1.571-.411-.839-.837-1.7-1.3-2.524a2,2,0,0,0-2.063-1.15,1.683,1.683,0,0,0-1.676,1.469l-.308-.031.3,1.117a9.321,9.321,0,0,0,.684,1.652l.063.129c.66,1.348,1.372,2.706,2.061,4.017.789,1.5,1.6,3.044,2.347,4.6a3.472,3.472,0,0,0,.6.879,2.09,2.09,0,0,0,1.512.73h0a2.112,2.112,0,0,0,1.526-.732,4.173,4.173,0,0,0,.691-1.04c.568-1.145,1.241-2.494,1.921-3.827.011-.024.022-.05.033-.077a1.412,1.412,0,0,1,1.008-.927l.586-.14.273.535c.435.846.868,1.716,1.285,2.555q.387.777.774,1.55l.013.024a6.157,6.157,0,0,0,.7,1.178,2.221,2.221,0,0,0,1.683.9,2.229,2.229,0,0,0,1.681-.935,5.068,5.068,0,0,0,.544-.907l2.457-4.911c.19-.38.38-.763.568-1.143.647-1.3,1.318-2.653,2.022-3.934l.459-.835Zm0,0a2.873,2.873,0,0,0-1.053-1.036c-1.16-.579-2.334-.1-3.062,1.25-.431.8-.841,1.63-1.239,2.435-.262.535-.527,1.069-.8,1.6-.013.028-.026.061-.039.1a1.454,1.454,0,0,1-1.025.977l-.59.153-.282-.54c-.511-.988-1.014-2-1.5-2.975-.2-.406-.4-.813-.608-1.22a5.4,5.4,0,0,0-.763-1.228,2.119,2.119,0,0,0-1.565-.782h0a2.128,2.128,0,0,0-1.567.778,5.339,5.339,0,0,0-.763,1.224l-.4.809c-.579,1.165-1.18,2.371-1.8,3.6l-.431.846-.734-.6a3.317,3.317,0,0,1-.9-1.224c-.028-.055-.055-.109-.081-.162-.269-.522-.531-1.056-.785-1.571-.411-.839-.837-1.7-1.3-2.524a2,2,0,0,0-2.063-1.15,1.683,1.683,0,0,0-1.676,1.469l-.308-.031.3,1.117a9.321,9.321,0,0,0,.684,1.652l.063.129c.66,1.348,1.372,2.706,2.061,4.017.789,1.5,1.6,3.044,2.347,4.6a3.472,3.472,0,0,0,.6.879,2.09,2.09,0,0,0,1.512.73h0a2.112,2.112,0,0,0,1.526-.732,4.173,4.173,0,0,0,.691-1.04c.568-1.145,1.241-2.494,1.921-3.827.011-.024.022-.05.033-.077a1.412,1.412,0,0,1,1.008-.927l.586-.14.273.535c.435.846.868,1.716,1.285,2.555q.387.777.774,1.55l.013.024a6.157,6.157,0,0,0,.7,1.178,2.221,2.221,0,0,0,1.683.9,2.229,2.229,0,0,0,1.681-.935,5.068,5.068,0,0,0,.544-.907l2.457-4.911c.19-.38.38-.763.568-1.143.647-1.3,1.318-2.653,2.022-3.934l.459-.835Zm0,0a2.873,2.873,0,0,0-1.053-1.036c-1.16-.579-2.334-.1-3.062,1.25-.431.8-.841,1.63-1.239,2.435-.262.535-.527,1.069-.8,1.6-.013.028-.026.061-.039.1a1.454,1.454,0,0,1-1.025.977l-.59.153-.282-.54c-.511-.988-1.014-2-1.5-2.975-.2-.406-.4-.813-.608-1.22a5.4,5.4,0,0,0-.763-1.228,2.119,2.119,0,0,0-1.565-.782h0a2.128,2.128,0,0,0-1.567.778,5.339,5.339,0,0,0-.763,1.224l-.4.809c-.579,1.165-1.18,2.371-1.8,3.6l-.431.846-.734-.6a3.317,3.317,0,0,1-.9-1.224c-.028-.055-.055-.109-.081-.162-.269-.522-.531-1.056-.785-1.571-.411-.839-.837-1.7-1.3-2.524a2,2,0,0,0-2.063-1.15,1.683,1.683,0,0,0-1.676,1.469l-.308-.031.3,1.117a9.321,9.321,0,0,0,.684,1.652l.063.129c.66,1.348,1.372,2.706,2.061,4.017.789,1.5,1.6,3.044,2.347,4.6a3.472,3.472,0,0,0,.6.879,2.09,2.09,0,0,0,1.512.73h0a2.112,2.112,0,0,0,1.526-.732,4.173,4.173,0,0,0,.691-1.04c.568-1.145,1.241-2.494,1.921-3.827.011-.024.022-.05.033-.077a1.412,1.412,0,0,1,1.008-.927l.586-.14.273.535c.435.846.868,1.716,1.285,2.555q.387.777.774,1.55l.013.024a6.157,6.157,0,0,0,.7,1.178,2.221,2.221,0,0,0,1.683.9,2.229,2.229,0,0,0,1.681-.935,5.068,5.068,0,0,0,.544-.907l2.457-4.911c.19-.38.38-.763.568-1.143.647-1.3,1.318-2.653,2.022-3.934l.459-.835Zm0,0a2.873,2.873,0,0,0-1.053-1.036c-1.16-.579-2.334-.1-3.062,1.25-.431.8-.841,1.63-1.239,2.435-.262.535-.527,1.069-.8,1.6-.013.028-.026.061-.039.1a1.454,1.454,0,0,1-1.025.977l-.59.153-.282-.54c-.511-.988-1.014-2-1.5-2.975-.2-.406-.4-.813-.608-1.22a5.4,5.4,0,0,0-.763-1.228,2.119,2.119,0,0,0-1.565-.782h0a2.128,2.128,0,0,0-1.567.778,5.339,5.339,0,0,0-.763,1.224l-.4.809c-.579,1.165-1.18,2.371-1.8,3.6l-.431.846-.734-.6a3.317,3.317,0,0,1-.9-1.224c-.028-.055-.055-.109-.081-.162-.269-.522-.531-1.056-.785-1.571-.411-.839-.837-1.7-1.3-2.524a2,2,0,0,0-2.063-1.15,1.683,1.683,0,0,0-1.676,1.469l-.308-.031.3,1.117a9.321,9.321,0,0,0,.684,1.652l.063.129c.66,1.348,1.372,2.706,2.061,4.017.789,1.5,1.6,3.044,2.347,4.6a3.472,3.472,0,0,0,.6.879,2.09,2.09,0,0,0,1.512.73h0a2.112,2.112,0,0,0,1.526-.732,4.173,4.173,0,0,0,.691-1.04c.568-1.145,1.241-2.494,1.921-3.827.011-.024.022-.05.033-.077a1.412,1.412,0,0,1,1.008-.927l.586-.14.273.535c.435.846.868,1.716,1.285,2.555q.387.777.774,1.55l.013.024a6.157,6.157,0,0,0,.7,1.178,2.221,2.221,0,0,0,1.683.9,2.229,2.229,0,0,0,1.681-.935,5.068,5.068,0,0,0,.544-.907l2.457-4.911c.19-.38.38-.763.568-1.143.647-1.3,1.318-2.653,2.022-3.934l.459-.835Zm0,0a2.873,2.873,0,0,0-1.053-1.036c-1.16-.579-2.334-.1-3.062,1.25-.431.8-.841,1.63-1.239,2.435-.262.535-.527,1.069-.8,1.6-.013.028-.026.061-.039.1a1.454,1.454,0,0,1-1.025.977l-.59.153-.282-.54c-.511-.988-1.014-2-1.5-2.975-.2-.406-.4-.813-.608-1.22a5.4,5.4,0,0,0-.763-1.228,2.119,2.119,0,0,0-1.565-.782h0a2.128,2.128,0,0,0-1.567.778,5.339,5.339,0,0,0-.763,1.224l-.4.809c-.579,1.165-1.18,2.371-1.8,3.6l-.431.846-.734-.6a3.317,3.317,0,0,1-.9-1.224c-.028-.055-.055-.109-.081-.162-.269-.522-.531-1.056-.785-1.571-.411-.839-.837-1.7-1.3-2.524a2,2,0,0,0-2.063-1.15,1.683,1.683,0,0,0-1.676,1.469l-.308-.031.3,1.117a9.321,9.321,0,0,0,.684,1.652l.063.129c.66,1.348,1.372,2.706,2.061,4.017.789,1.5,1.6,3.044,2.347,4.6a3.472,3.472,0,0,0,.6.879,2.09,2.09,0,0,0,1.512.73h0a2.112,2.112,0,0,0,1.526-.732,4.173,4.173,0,0,0,.691-1.04c.568-1.145,1.241-2.494,1.921-3.827.011-.024.022-.05.033-.077a1.412,1.412,0,0,1,1.008-.927l.586-.14.273.535c.435.846.868,1.716,1.285,2.555q.387.777.774,1.55l.013.024a6.157,6.157,0,0,0,.7,1.178,2.221,2.221,0,0,0,1.683.9,2.229,2.229,0,0,0,1.681-.935,5.068,5.068,0,0,0,.544-.907l2.457-4.911c.19-.38.38-.763.568-1.143.647-1.3,1.318-2.653,2.022-3.934l.459-.835Zm55.336-9.835a5.567,5.567,0,0,1-1.388-1.947,43.751,43.751,0,0,0-11.221-15.264,44.681,44.681,0,0,0-18.719-9.8,45.731,45.731,0,0,0-15.235-.909,40.648,40.648,0,0,0-17.626,5.886,43.227,43.227,0,0,0-10.672,8.9,43.2,43.2,0,0,0-7.094,11.059,6.16,6.16,0,0,1-1.456,2.089,6.679,6.679,0,0,0-2.271,5.151c.028,7.549.026,14.536,0,21.366A6.147,6.147,0,0,0-877.094,418a12.678,12.678,0,0,1,2.474,3.733,43.9,43.9,0,0,0,10.829,14.2,44.652,44.652,0,0,0,19.687,9.92,35.509,35.509,0,0,0,4.113.594c.5.055,1.012.107,1.519.168h.612a1.327,1.327,0,0,1,.529-.087h.011l.068,0h1.062a1.242,1.242,0,0,1,.5.09h1.665a1.306,1.306,0,0,1,.533-.087h0l.072,0h1.062a1.238,1.238,0,0,1,.5.09h.234a10.789,10.789,0,0,1,1.724-.157c.409-.013.8-.028,1.174-.079a42.051,42.051,0,0,0,13.185-4.048,44.1,44.1,0,0,0,13.712-10.482,43.5,43.5,0,0,0,7.315-11.4,3.988,3.988,0,0,1,1.04-1.589,6.634,6.634,0,0,0,2.5-4.483V391.238A6.3,6.3,0,0,0-793.156,386.869Zm-28.226-21.947a40.923,40.923,0,0,1,22.039,18.986l.308.549-.481.409a1.426,1.426,0,0,1-1.1.313c-.026,0-.05-.007-.077-.007q-1.865,0-3.72,0c-2.669,0-5.429,0-8.139.026a.223.223,0,0,1-.037,0,1.6,1.6,0,0,1-1.716-1.423,50.337,50.337,0,0,0-5.835-14.654,22.84,22.84,0,0,0-2.1-2.99l-1.915-2.26Zm-11.62,3.34V362.69l1.018.356a14.214,14.214,0,0,1,6.517,4.907c3.781,4.758,5.746,10.329,7.033,14.654.111.372.21.745.313,1.143.037.151.079.3.12.466l.253.959h-6.788c-2.31,0-4.7,0-7.048.009l-.057,0a1.38,1.38,0,0,1-1.027-.343,1.406,1.406,0,0,1-.347-1.01C-833,378.662-833,373.375-833,368.261Zm-5.232-5.029.031-.015a1.187,1.187,0,0,1,1.062-.013l.437.208,0,5.556c0,4.769,0,9.7.018,14.545a1.694,1.694,0,0,1-.4,1.292,1.617,1.617,0,0,1-1.191.4.419.419,0,0,1-.052,0c-4.295-.052-8.578-.031-11.83-.009a1.449,1.449,0,0,1-1.246-.433,1.485,1.485,0,0,1-.1-1.327c1.635-5.953,3.521-10.248,6.12-13.924A16.547,16.547,0,0,1-838.235,363.232Zm-32.138,20.828c4.421-8.6,13.013-16.053,21.884-18.988l2.262-.747-1.4,1.925a41.342,41.342,0,0,0-4.187,7.081,54.172,54.172,0,0,0-3.558,10.359,1.729,1.729,0,0,1-1.908,1.5.306.306,0,0,1-.044,0c-3.01-.028-6.091-.024-9.07-.02q-1.642,0-3.3,0h-1.254Zm21.888,56.339a40.425,40.425,0,0,1-21.84-18.883l-.24-.459.337-.393a1.256,1.256,0,0,1,1.209-.389.564.564,0,0,0,.085.009c1.344,0,2.695,0,4.043,0,2.5,0,5.081,0,7.617-.026a1.679,1.679,0,0,1,1.891,1.469,49.393,49.393,0,0,0,6.194,15.214c.323.509.673,1.008,1.045,1.534.175.249.356.5.538.769l1.316,1.908Zm11.828-17.344c-.026.278-.05.54-.05.763q0,6.281,0,12.558v6.395l-1.021-.363a14.293,14.293,0,0,1-6.533-4.928c-3.787-4.78-5.741-10.344-7.022-14.658-.135-.459-.254-.92-.369-1.366a1.021,1.021,0,0,1,0-.468c0-.015.007-.033.009-.052l.1-.656h.662l2.964,0c2.507,0,5.1,0,7.654.007a6.218,6.218,0,0,0,.776-.061,2.712,2.712,0,0,1,2.446.479A2.966,2.966,0,0,1-836.657,423.055Zm5.1,19.2a2.59,2.59,0,0,1-.323.1c-.044.011-.1.024-.155.042l-.97.271,0-6.2c0-4.791,0-9.745-.02-14.617a1.644,1.644,0,0,1,.393-1.222,1.646,1.646,0,0,1,1.23-.389c3.794.033,7.665.033,11.837,0a1.45,1.45,0,0,1,1.259.441,1.472,1.472,0,0,1,.1,1.327,46.009,46.009,0,0,1-6.264,14.14A15.662,15.662,0,0,1-831.554,442.25ZM-799.28,421.4a41.081,41.081,0,0,1-22.083,19.123l-2.559.966,1.685-2.153a37.948,37.948,0,0,0,5.186-9.151,58.2,58.2,0,0,0,2.765-8.561c.009-.037.017-.076.024-.116a1.38,1.38,0,0,1,1.484-1.27c3.18.028,6.31.026,9.625.022l3.206,0h1.3Zm4.609-19.15q0,5.35,0,10.7a3.377,3.377,0,0,1-3.646,3.628l-36.538,0-36.536,0a3.378,3.378,0,0,1-3.648-3.628q-.007-5.5,0-11.009l0-5.156,0-1.263c0-.975,0-1.949,0-2.926a3.4,3.4,0,0,1,3.737-3.711q14.7,0,29.4,0h43.232c2.688,0,4,1.3,4,3.978q0,1.3,0,2.6l0,1.626Zm-54.874-6.581c-1.16-.579-2.334-.1-3.062,1.25-.431.8-.841,1.63-1.239,2.435-.262.535-.527,1.069-.8,1.6-.013.028-.026.061-.039.1a1.454,1.454,0,0,1-1.025.977l-.59.153-.282-.54c-.511-.988-1.014-2-1.5-2.975-.2-.406-.4-.813-.608-1.22a5.4,5.4,0,0,0-.763-1.228,2.119,2.119,0,0,0-1.565-.782h0a2.128,2.128,0,0,0-1.567.778,5.339,5.339,0,0,0-.763,1.224l-.4.809c-.579,1.165-1.18,2.371-1.8,3.6l-.431.846-.734-.6a3.317,3.317,0,0,1-.9-1.224c-.028-.055-.055-.109-.081-.162-.269-.522-.531-1.056-.785-1.571-.411-.839-.837-1.7-1.3-2.524a2,2,0,0,0-2.063-1.15,1.683,1.683,0,0,0-1.676,1.469l-.308-.031.3,1.117a9.321,9.321,0,0,0,.684,1.652l.063.129c.66,1.348,1.372,2.706,2.061,4.017.789,1.5,1.6,3.044,2.347,4.6a3.472,3.472,0,0,0,.6.879,2.09,2.09,0,0,0,1.512.73h0a2.112,2.112,0,0,0,1.526-.732,4.173,4.173,0,0,0,.691-1.04c.568-1.145,1.241-2.494,1.921-3.827.011-.024.022-.05.033-.077a1.412,1.412,0,0,1,1.008-.927l.586-.14.273.535c.435.846.868,1.716,1.285,2.555q.387.777.774,1.55l.013.024a6.157,6.157,0,0,0,.7,1.178,2.221,2.221,0,0,0,1.683.9,2.229,2.229,0,0,0,1.681-.935,5.068,5.068,0,0,0,.544-.907l2.457-4.911c.19-.38.38-.763.568-1.143.647-1.3,1.318-2.653,2.022-3.934l.459-.835-.452-.653A2.873,2.873,0,0,0-849.545,395.668Zm1.053,1.036a2.873,2.873,0,0,0-1.053-1.036c-1.16-.579-2.334-.1-3.062,1.25-.431.8-.841,1.63-1.239,2.435-.262.535-.527,1.069-.8,1.6-.013.028-.026.061-.039.1a1.454,1.454,0,0,1-1.025.977l-.59.153-.282-.54c-.511-.988-1.014-2-1.5-2.975-.2-.406-.4-.813-.608-1.22a5.4,5.4,0,0,0-.763-1.228,2.119,2.119,0,0,0-1.565-.782h0a2.128,2.128,0,0,0-1.567.778,5.339,5.339,0,0,0-.763,1.224l-.4.809c-.579,1.165-1.18,2.371-1.8,3.6l-.431.846-.734-.6a3.317,3.317,0,0,1-.9-1.224c-.028-.055-.055-.109-.081-.162-.269-.522-.531-1.056-.785-1.571-.411-.839-.837-1.7-1.3-2.524a2,2,0,0,0-2.063-1.15,1.683,1.683,0,0,0-1.676,1.469l-.308-.031.3,1.117a9.321,9.321,0,0,0,.684,1.652l.063.129c.66,1.348,1.372,2.706,2.061,4.017.789,1.5,1.6,3.044,2.347,4.6a3.472,3.472,0,0,0,.6.879,2.09,2.09,0,0,0,1.512.73h0a2.112,2.112,0,0,0,1.526-.732,4.173,4.173,0,0,0,.691-1.04c.568-1.145,1.241-2.494,1.921-3.827.011-.024.022-.05.033-.077a1.412,1.412,0,0,1,1.008-.927l.586-.14.273.535c.435.846.868,1.716,1.285,2.555q.387.777.774,1.55l.013.024a6.157,6.157,0,0,0,.7,1.178,2.221,2.221,0,0,0,1.683.9,2.229,2.229,0,0,0,1.681-.935,5.068,5.068,0,0,0,.544-.907l2.457-4.911c.19-.38.38-.763.568-1.143.647-1.3,1.318-2.653,2.022-3.934l.459-.835Zm0,0a2.873,2.873,0,0,0-1.053-1.036c-1.16-.579-2.334-.1-3.062,1.25-.431.8-.841,1.63-1.239,2.435-.262.535-.527,1.069-.8,1.6-.013.028-.026.061-.039.1a1.454,1.454,0,0,1-1.025.977l-.59.153-.282-.54c-.511-.988-1.014-2-1.5-2.975-.2-.406-.4-.813-.608-1.22a5.4,5.4,0,0,0-.763-1.228,2.119,2.119,0,0,0-1.565-.782h0a2.128,2.128,0,0,0-1.567.778,5.339,5.339,0,0,0-.763,1.224l-.4.809c-.579,1.165-1.18,2.371-1.8,3.6l-.431.846-.734-.6a3.317,3.317,0,0,1-.9-1.224c-.028-.055-.055-.109-.081-.162-.269-.522-.531-1.056-.785-1.571-.411-.839-.837-1.7-1.3-2.524a2,2,0,0,0-2.063-1.15,1.683,1.683,0,0,0-1.676,1.469l-.308-.031.3,1.117a9.321,9.321,0,0,0,.684,1.652l.063.129c.66,1.348,1.372,2.706,2.061,4.017.789,1.5,1.6,3.044,2.347,4.6a3.472,3.472,0,0,0,.6.879,2.09,2.09,0,0,0,1.512.73h0a2.112,2.112,0,0,0,1.526-.732,4.173,4.173,0,0,0,.691-1.04c.568-1.145,1.241-2.494,1.921-3.827.011-.024.022-.05.033-.077a1.412,1.412,0,0,1,1.008-.927l.586-.14.273.535c.435.846.868,1.716,1.285,2.555q.387.777.774,1.55l.013.024a6.157,6.157,0,0,0,.7,1.178,2.221,2.221,0,0,0,1.683.9,2.229,2.229,0,0,0,1.681-.935,5.068,5.068,0,0,0,.544-.907l2.457-4.911c.19-.38.38-.763.568-1.143.647-1.3,1.318-2.653,2.022-3.934l.459-.835Zm0,0a2.873,2.873,0,0,0-1.053-1.036c-1.16-.579-2.334-.1-3.062,1.25-.431.8-.841,1.63-1.239,2.435-.262.535-.527,1.069-.8,1.6-.013.028-.026.061-.039.1a1.454,1.454,0,0,1-1.025.977l-.59.153-.282-.54c-.511-.988-1.014-2-1.5-2.975-.2-.406-.4-.813-.608-1.22a5.4,5.4,0,0,0-.763-1.228,2.119,2.119,0,0,0-1.565-.782h0a2.128,2.128,0,0,0-1.567.778,5.339,5.339,0,0,0-.763,1.224l-.4.809c-.579,1.165-1.18,2.371-1.8,3.6l-.431.846-.734-.6a3.317,3.317,0,0,1-.9-1.224c-.028-.055-.055-.109-.081-.162-.269-.522-.531-1.056-.785-1.571-.411-.839-.837-1.7-1.3-2.524a2,2,0,0,0-2.063-1.15,1.683,1.683,0,0,0-1.676,1.469l-.308-.031.3,1.117a9.321,9.321,0,0,0,.684,1.652l.063.129c.66,1.348,1.372,2.706,2.061,4.017.789,1.5,1.6,3.044,2.347,4.6a3.472,3.472,0,0,0,.6.879,2.09,2.09,0,0,0,1.512.73h0a2.112,2.112,0,0,0,1.526-.732,4.173,4.173,0,0,0,.691-1.04c.568-1.145,1.241-2.494,1.921-3.827.011-.024.022-.05.033-.077a1.412,1.412,0,0,1,1.008-.927l.586-.14.273.535c.435.846.868,1.716,1.285,2.555q.387.777.774,1.55l.013.024a6.157,6.157,0,0,0,.7,1.178,2.221,2.221,0,0,0,1.683.9,2.229,2.229,0,0,0,1.681-.935,5.068,5.068,0,0,0,.544-.907l2.457-4.911c.19-.38.38-.763.568-1.143.647-1.3,1.318-2.653,2.022-3.934l.459-.835Zm0,0a2.873,2.873,0,0,0-1.053-1.036c-1.16-.579-2.334-.1-3.062,1.25-.431.8-.841,1.63-1.239,2.435-.262.535-.527,1.069-.8,1.6-.013.028-.026.061-.039.1a1.454,1.454,0,0,1-1.025.977l-.59.153-.282-.54c-.511-.988-1.014-2-1.5-2.975-.2-.406-.4-.813-.608-1.22a5.4,5.4,0,0,0-.763-1.228,2.119,2.119,0,0,0-1.565-.782h0a2.128,2.128,0,0,0-1.567.778,5.339,5.339,0,0,0-.763,1.224l-.4.809c-.579,1.165-1.18,2.371-1.8,3.6l-.431.846-.734-.6a3.317,3.317,0,0,1-.9-1.224c-.028-.055-.055-.109-.081-.162-.269-.522-.531-1.056-.785-1.571-.411-.839-.837-1.7-1.3-2.524a2,2,0,0,0-2.063-1.15,1.683,1.683,0,0,0-1.676,1.469l-.308-.031.3,1.117a9.321,9.321,0,0,0,.684,1.652l.063.129c.66,1.348,1.372,2.706,2.061,4.017.789,1.5,1.6,3.044,2.347,4.6a3.472,3.472,0,0,0,.6.879,2.09,2.09,0,0,0,1.512.73h0a2.112,2.112,0,0,0,1.526-.732,4.173,4.173,0,0,0,.691-1.04c.568-1.145,1.241-2.494,1.921-3.827.011-.024.022-.05.033-.077a1.412,1.412,0,0,1,1.008-.927l.586-.14.273.535c.435.846.868,1.716,1.285,2.555q.387.777.774,1.55l.013.024a6.157,6.157,0,0,0,.7,1.178,2.221,2.221,0,0,0,1.683.9,2.229,2.229,0,0,0,1.681-.935,5.068,5.068,0,0,0,.544-.907l2.457-4.911c.19-.38.38-.763.568-1.143.647-1.3,1.318-2.653,2.022-3.934l.459-.835Zm0,0a2.873,2.873,0,0,0-1.053-1.036c-1.16-.579-2.334-.1-3.062,1.25-.431.8-.841,1.63-1.239,2.435-.262.535-.527,1.069-.8,1.6-.013.028-.026.061-.039.1a1.454,1.454,0,0,1-1.025.977l-.59.153-.282-.54c-.511-.988-1.014-2-1.5-2.975-.2-.406-.4-.813-.608-1.22a5.4,5.4,0,0,0-.763-1.228,2.119,2.119,0,0,0-1.565-.782h0a2.128,2.128,0,0,0-1.567.778,5.339,5.339,0,0,0-.763,1.224l-.4.809c-.579,1.165-1.18,2.371-1.8,3.6l-.431.846-.734-.6a3.317,3.317,0,0,1-.9-1.224c-.028-.055-.055-.109-.081-.162-.269-.522-.531-1.056-.785-1.571-.411-.839-.837-1.7-1.3-2.524a2,2,0,0,0-2.063-1.15,1.683,1.683,0,0,0-1.676,1.469l-.308-.031.3,1.117a9.321,9.321,0,0,0,.684,1.652l.063.129c.66,1.348,1.372,2.706,2.061,4.017.789,1.5,1.6,3.044,2.347,4.6a3.472,3.472,0,0,0,.6.879,2.09,2.09,0,0,0,1.512.73h0a2.112,2.112,0,0,0,1.526-.732,4.173,4.173,0,0,0,.691-1.04c.568-1.145,1.241-2.494,1.921-3.827.011-.024.022-.05.033-.077a1.412,1.412,0,0,1,1.008-.927l.586-.14.273.535c.435.846.868,1.716,1.285,2.555q.387.777.774,1.55l.013.024a6.157,6.157,0,0,0,.7,1.178,2.221,2.221,0,0,0,1.683.9,2.229,2.229,0,0,0,1.681-.935,5.068,5.068,0,0,0,.544-.907l2.457-4.911c.19-.38.38-.763.568-1.143.647-1.3,1.318-2.653,2.022-3.934l.459-.835Zm0,0a2.873,2.873,0,0,0-1.053-1.036c-1.16-.579-2.334-.1-3.062,1.25-.431.8-.841,1.63-1.239,2.435-.262.535-.527,1.069-.8,1.6-.013.028-.026.061-.039.1a1.454,1.454,0,0,1-1.025.977l-.59.153-.282-.54c-.511-.988-1.014-2-1.5-2.975-.2-.406-.4-.813-.608-1.22a5.4,5.4,0,0,0-.763-1.228,2.119,2.119,0,0,0-1.565-.782h0a2.128,2.128,0,0,0-1.567.778,5.339,5.339,0,0,0-.763,1.224l-.4.809c-.579,1.165-1.18,2.371-1.8,3.6l-.431.846-.734-.6a3.317,3.317,0,0,1-.9-1.224c-.028-.055-.055-.109-.081-.162-.269-.522-.531-1.056-.785-1.571-.411-.839-.837-1.7-1.3-2.524a2,2,0,0,0-2.063-1.15,1.683,1.683,0,0,0-1.676,1.469l-.308-.031.3,1.117a9.321,9.321,0,0,0,.684,1.652l.063.129c.66,1.348,1.372,2.706,2.061,4.017.789,1.5,1.6,3.044,2.347,4.6a3.472,3.472,0,0,0,.6.879,2.09,2.09,0,0,0,1.512.73h0a2.112,2.112,0,0,0,1.526-.732,4.173,4.173,0,0,0,.691-1.04c.568-1.145,1.241-2.494,1.921-3.827.011-.024.022-.05.033-.077a1.412,1.412,0,0,1,1.008-.927l.586-.14.273.535c.435.846.868,1.716,1.285,2.555q.387.777.774,1.55l.013.024a6.157,6.157,0,0,0,.7,1.178,2.221,2.221,0,0,0,1.683.9,2.229,2.229,0,0,0,1.681-.935,5.068,5.068,0,0,0,.544-.907l2.457-4.911c.19-.38.38-.763.568-1.143.647-1.3,1.318-2.653,2.022-3.934l.459-.835Z" transform="translate(878.841 -358.716)" fill="#101928"/>
                <path id="Path_7466" data-name="Path 7466" d="M-830.113,528.615l-.459.835c-.7,1.281-1.375,2.629-2.022,3.934-.188.38-.378.763-.568,1.143l-2.457,4.911a5.068,5.068,0,0,1-.544.907,2.229,2.229,0,0,1-1.681.935,2.221,2.221,0,0,1-1.683-.9,6.157,6.157,0,0,1-.7-1.178l-.013-.024q-.387-.774-.774-1.55c-.417-.839-.85-1.709-1.285-2.555l-.273-.535-.586.14a1.412,1.412,0,0,0-1.008.927c-.011.026-.022.052-.033.076-.68,1.333-1.353,2.682-1.921,3.827a4.173,4.173,0,0,1-.691,1.04,2.112,2.112,0,0,1-1.526.732h0a2.09,2.09,0,0,1-1.512-.73,3.472,3.472,0,0,1-.6-.879c-.745-1.56-1.558-3.108-2.347-4.6-.688-1.311-1.4-2.669-2.061-4.017l-.063-.129a9.32,9.32,0,0,1-.684-1.652l-.3-1.117.308.031a1.683,1.683,0,0,1,1.676-1.469,2,2,0,0,1,2.063,1.15c.459.82.885,1.685,1.3,2.524.254.516.516,1.049.785,1.571.026.052.052.107.081.162a3.317,3.317,0,0,0,.9,1.224l.734.6.431-.846c.623-1.226,1.224-2.432,1.8-3.6l.4-.809a5.339,5.339,0,0,1,.763-1.224,2.128,2.128,0,0,1,1.567-.778h0a2.119,2.119,0,0,1,1.565.782,5.4,5.4,0,0,1,.763,1.228c.2.407.4.813.608,1.22.485.977.988,1.987,1.5,2.974l.282.54.59-.153a1.454,1.454,0,0,0,1.025-.977c.013-.035.026-.068.039-.1.271-.529.535-1.062.8-1.6.4-.8.809-1.637,1.239-2.435.728-1.351,1.9-1.829,3.062-1.25a2.873,2.873,0,0,1,1.053,1.036Z" transform="translate(860.914 -489.974)" fill="#101928"/>
                <path id="Path_7467" data-name="Path 7467" d="M-710.128,528.615l-.459.835c-.7,1.281-1.375,2.629-2.022,3.934-.188.38-.378.763-.568,1.143l-2.457,4.911a5.072,5.072,0,0,1-.544.907,2.229,2.229,0,0,1-1.681.935,2.221,2.221,0,0,1-1.683-.9,6.157,6.157,0,0,1-.7-1.178l-.013-.024q-.387-.774-.774-1.55c-.417-.839-.85-1.709-1.285-2.555l-.273-.535-.586.14a1.412,1.412,0,0,0-1.008.927c-.011.026-.022.052-.033.076-.68,1.333-1.353,2.682-1.921,3.827a4.173,4.173,0,0,1-.691,1.04,2.112,2.112,0,0,1-1.526.732h0a2.09,2.09,0,0,1-1.512-.73,3.472,3.472,0,0,1-.6-.879c-.745-1.56-1.558-3.108-2.347-4.6-.688-1.311-1.4-2.669-2.061-4.017l-.063-.129a9.325,9.325,0,0,1-.684-1.652l-.3-1.117.308.031a1.683,1.683,0,0,1,1.676-1.469,2,2,0,0,1,2.063,1.15c.459.82.885,1.685,1.3,2.524.254.516.516,1.049.785,1.571.026.052.052.107.081.162a3.317,3.317,0,0,0,.9,1.224l.734.6.431-.846c.623-1.226,1.224-2.432,1.8-3.6l.4-.809a5.337,5.337,0,0,1,.763-1.224,2.128,2.128,0,0,1,1.567-.778h0a2.119,2.119,0,0,1,1.565.782,5.4,5.4,0,0,1,.763,1.228c.2.407.4.813.608,1.22.485.977.988,1.987,1.5,2.974l.282.54.59-.153a1.454,1.454,0,0,0,1.025-.977c.013-.035.026-.068.039-.1.271-.529.535-1.062.8-1.6.4-.8.809-1.637,1.239-2.435.728-1.351,1.9-1.829,3.062-1.25a2.873,2.873,0,0,1,1.053,1.036Z" transform="translate(767.152 -489.974)" fill="#101928"/>
                <path id="Path_7468" data-name="Path 7468" d="M-590.143,528.615l-.459.835c-.7,1.281-1.375,2.629-2.022,3.934-.188.38-.378.763-.568,1.143l-2.457,4.911a5.072,5.072,0,0,1-.544.907,2.229,2.229,0,0,1-1.681.935,2.221,2.221,0,0,1-1.683-.9,6.16,6.16,0,0,1-.7-1.178l-.013-.024q-.387-.774-.774-1.55c-.417-.839-.85-1.709-1.285-2.555l-.273-.535-.586.14a1.412,1.412,0,0,0-1.008.927c-.011.026-.022.052-.033.076-.68,1.333-1.353,2.682-1.921,3.827a4.172,4.172,0,0,1-.691,1.04,2.112,2.112,0,0,1-1.525.732h0a2.09,2.09,0,0,1-1.512-.73,3.468,3.468,0,0,1-.6-.879c-.745-1.56-1.558-3.108-2.347-4.6-.688-1.311-1.4-2.669-2.061-4.017l-.063-.129a9.316,9.316,0,0,1-.684-1.652l-.3-1.117.308.031a1.683,1.683,0,0,1,1.676-1.469,2,2,0,0,1,2.063,1.15c.459.82.885,1.685,1.3,2.524.254.516.516,1.049.785,1.571.026.052.052.107.081.162a3.316,3.316,0,0,0,.9,1.224l.734.6.431-.846c.623-1.226,1.224-2.432,1.8-3.6l.4-.809a5.339,5.339,0,0,1,.763-1.224,2.128,2.128,0,0,1,1.567-.778h0a2.119,2.119,0,0,1,1.565.782,5.4,5.4,0,0,1,.763,1.228c.2.407.4.813.608,1.22.485.977.988,1.987,1.5,2.974l.282.54.59-.153a1.454,1.454,0,0,0,1.025-.977c.013-.035.026-.068.039-.1.271-.529.535-1.062.8-1.6.4-.8.809-1.637,1.239-2.435.728-1.351,1.9-1.829,3.062-1.25a2.873,2.873,0,0,1,1.053,1.036Z" transform="translate(673.39 -489.974)" fill="#101928"/>
              </g>
            </g>
          </g>
        </g>
      </g>
    </g>
  </g>
</svg>
