<svg xmlns="http://www.w3.org/2000/svg" width="86.835" height="110.073" viewBox="0 0 86.835 110.073">
  <g id="pay" transform="translate(-536.583 -434)">
    <g id="card_1_" data-name="card (1)" transform="translate(552.938 441.879)" opacity="0.25">
      <path id="Path_3668" data-name="Path 3668" d="M203.034,182.842a18.272,18.272,0,0,0,18.272,18.272h27.54V156.2a17.615,17.615,0,0,0-3.859-11.012l-17.285-21.6H203.034Z" transform="translate(-178.366 -98.919)" fill="#faba5f"/>
      <path id="Path_3669" data-name="Path 3669" d="M86.5,0h35.239a7.048,7.048,0,0,1,7.048,7.048V70.479a7.048,7.048,0,0,1-7.048,7.048H86.5a7.048,7.048,0,0,1-7.048-7.048V7.048A7.048,7.048,0,0,1,86.5,0Z" transform="translate(-79.449 0)" fill="#faba5f"/>
      <path id="Path_3670" data-name="Path 3670" d="M79.448,142.624v2.255a7.048,7.048,0,0,0,7.048,7.048h35.24a7.048,7.048,0,0,0,7.048-7.048V92.954A108.105,108.105,0,0,1,79.448,142.624Z" transform="translate(-79.448 -74.4)" fill="#faba5f"/>
      <rect id="Rectangle_5312" data-name="Rectangle 5312" width="19.382" height="5.286" transform="translate(24.668 77.527)" fill="#faba5f"/>
      <rect id="Rectangle_5313" data-name="Rectangle 5313" width="8.81" height="77.527" transform="translate(29.954 0)" fill="#faba5f"/>
      <g id="Group_1249" data-name="Group 1249" transform="translate(7.048 7.048)">
        <rect id="Rectangle_5314" data-name="Rectangle 5314" width="3.524" height="22.906" fill="#faba5f"/>
        <rect id="Rectangle_5315" data-name="Rectangle 5315" width="3.524" height="14.096" transform="translate(8.81)" fill="#faba5f"/>
      </g>
      <rect id="Rectangle_5316" data-name="Rectangle 5316" width="10.572" height="10.572" transform="translate(8.81 58.145)" fill="#faba5f"/>
      <path id="Path_3671" data-name="Path 3671" d="M222.725,217.689l-23.681-25.161a6.4,6.4,0,0,0-9.042-.257c-.041.039-.081.077-.12.116h0a6.414,6.414,0,0,0-.37,8.651L205.1,219.451v6.1a21.708,21.708,0,0,0,14.1,20.333h3.524Z" transform="translate(-166.341 -152.496)" fill="#faba5f"/>
    </g>
    <g id="card" transform="translate(536.583 434)">
      <g id="Group_1232" data-name="Group 1232" transform="translate(0 0)">
        <g id="Group_1231" data-name="Group 1231">
          <path id="Path_3664" data-name="Path 3664" d="M119.381,0H85.316A8.526,8.526,0,0,0,76.8,8.516V69.833a8.526,8.526,0,0,0,8.516,8.516h30.658V74.943H85.316a5.116,5.116,0,0,1-5.11-5.11V8.516a5.116,5.116,0,0,1,5.11-5.11h34.065a5.116,5.116,0,0,1,5.11,5.11V57.91H127.9V8.516A8.526,8.526,0,0,0,119.381,0Z" transform="translate(-76.8)" fill="#101928"/>
        </g>
      </g>
      <g id="Group_1234" data-name="Group 1234" transform="translate(23.846 24.486)">
        <g id="Group_1233" data-name="Group 1233">
          <path id="Path_3665" data-name="Path 3665" d="M239.855,143.557l-16.709-20.882-2.662,2.129,16.709,20.88a15.372,15.372,0,0,1,3.359,9.581v41.712H215.633a15.978,15.978,0,0,1-15.959-15.959v-6.183h-3.407v6.183a19.389,19.389,0,0,0,19.366,19.366h26.622a1.7,1.7,0,0,0,1.7-1.7V155.267A18.807,18.807,0,0,0,239.855,143.557Z" transform="translate(-196.267 -122.675)" fill="#101928"/>
        </g>
      </g>
      <g id="Group_1236" data-name="Group 1236" transform="translate(20.933 36.758)">
        <g id="Group_1235" data-name="Group 1235">
          <path id="Path_3666" data-name="Path 3666" d="M189.689,187.57a4.446,4.446,0,0,1,3.127,1.4l22.89,24.322,2.482-2.335-22.893-24.324a7.834,7.834,0,0,0-5.508-2.468,7.735,7.735,0,0,0-5.621,2.133c-.019.019-.155.148-.172.167a7.863,7.863,0,0,0-.451,10.666l14.67,17.322v5.27a22.788,22.788,0,0,0,14.731,21.251l1.2-3.19a19.369,19.369,0,0,1-12.521-18.061v-5.893a1.71,1.71,0,0,0-.4-1.1l-15.069-17.794a4.5,4.5,0,0,1,.341-6.142A4.559,4.559,0,0,1,189.689,187.57Z" transform="translate(-181.674 -184.16)" fill="#101928"/>
        </g>
      </g>
      <g id="Group_1238" data-name="Group 1238" transform="translate(37.471 3.407)">
        <g id="Group_1237" data-name="Group 1237">
          <rect id="Rectangle_5307" data-name="Rectangle 5307" width="3.407" height="42.581" fill="#101928"/>
        </g>
      </g>
      <g id="Group_1240" data-name="Group 1240" transform="translate(28.955 56.207)">
        <g id="Group_1239" data-name="Group 1239">
          <rect id="Rectangle_5308" data-name="Rectangle 5308" width="3.407" height="20.439" fill="#101928"/>
        </g>
      </g>
      <g id="Group_1242" data-name="Group 1242" transform="translate(28.955 1.703)">
        <g id="Group_1241" data-name="Group 1241">
          <rect id="Rectangle_5309" data-name="Rectangle 5309" width="3.407" height="37.471" fill="#101928"/>
        </g>
      </g>
      <g id="Group_1244" data-name="Group 1244" transform="translate(8.516 8.516)">
        <g id="Group_1243" data-name="Group 1243">
          <rect id="Rectangle_5310" data-name="Rectangle 5310" width="3.407" height="22.142" fill="#101928"/>
        </g>
      </g>
      <g id="Group_1246" data-name="Group 1246" transform="translate(17.032 8.516)">
        <g id="Group_1245" data-name="Group 1245">
          <rect id="Rectangle_5311" data-name="Rectangle 5311" width="3.407" height="13.626" fill="#101928"/>
        </g>
      </g>
      <g id="Group_1248" data-name="Group 1248" transform="translate(8.516 56.207)">
        <g id="Group_1247" data-name="Group 1247">
          <path id="Path_3667" data-name="Path 3667" d="M131.39,281.6H121.17a1.7,1.7,0,0,0-1.7,1.7v10.219a1.7,1.7,0,0,0,1.7,1.7H131.39a1.7,1.7,0,0,0,1.7-1.7V283.3A1.7,1.7,0,0,0,131.39,281.6Zm-1.7,10.219h-6.813v-6.813h6.813Z" transform="translate(-119.467 -281.6)" fill="#101928"/>
        </g>
      </g>
    </g>
  </g>
</svg>
