<svg xmlns="http://www.w3.org/2000/svg" width="40.308" height="40.319" viewBox="0 0 40.308 40.319">
  <g id="plans" transform="translate(0.25 0.258)">
    <path id="Path_3662" data-name="Path 3662" d="M209.887,133.779A3.887,3.887,0,1,0,206,129.891,3.892,3.892,0,0,0,209.887,133.779Zm0-6.22a2.332,2.332,0,1,1-2.332,2.332A2.335,2.335,0,0,1,209.887,127.559Z" transform="translate(-189.984 -116.203)" fill="#fff" stroke="#fff" stroke-width="0.5"/>
    <path id="Path_3663" data-name="Path 3663" d="M14.207,35.05a3.9,3.9,0,0,0-3.556-3.007,5.645,5.645,0,0,0-5.838-3.061A5.831,5.831,0,0,0,0,34.369a5.612,5.612,0,0,0,5.6,5.442H16.4a.777.777,0,1,0,0-1.555H5.6a4.071,4.071,0,0,1-4.043-3.887,4.306,4.306,0,0,1,3.474-3.847A4.125,4.125,0,0,1,9.013,32.3a3.885,3.885,0,0,0-1.343.875.777.777,0,1,0,1.1,1.1,2.332,2.332,0,0,1,3.981,1.649.778.778,0,0,0,.777.777,4.021,4.021,0,0,0,4.043-3.887v-2.8h4.665v2.8A4.021,4.021,0,0,0,26.279,36.7a.778.778,0,0,0,.777-.777,2.332,2.332,0,0,1,3.981-1.649.778.778,0,0,0,1.1-1.1,3.884,3.884,0,0,0-1.343-.875,4.126,4.126,0,0,1,3.983-1.778,4.278,4.278,0,0,1,3.474,3.909,4.046,4.046,0,0,1-4.043,3.825H23.4a.777.777,0,1,0,0,1.555H34.209a5.628,5.628,0,0,0,5.6-5.35,5.8,5.8,0,0,0-4.812-5.479,5.645,5.645,0,0,0-5.838,3.061A3.9,3.9,0,0,0,25.6,35.05a2.436,2.436,0,0,1-1.809-2.236v-2.8h.777a.777.777,0,0,0,.771-.675l.325-2.435h3.422a2.48,2.48,0,0,0,1.883-4.094l-4.118-4.8.4-3A15.271,15.271,0,0,0,20.3.115a.778.778,0,0,0-.8,0A15.271,15.271,0,0,0,12.556,15l.4,3-4.119,4.8a2.48,2.48,0,0,0,1.884,4.094h3.422l.325,2.435a.777.777,0,0,0,.771.675h.777v2.8a2.436,2.436,0,0,1-1.809,2.236ZM29.788,23.823a.925.925,0,0,1-.7,1.527H25.871l.7-5.276ZM19.9,1.7a12.556,12.556,0,0,1,3.132,2.969H16.771A12.555,12.555,0,0,1,19.9,1.7ZM15.765,6.224h8.277A13.933,13.933,0,0,1,25.71,14.8L24.3,25.35H15.5L14.1,14.8a13.932,13.932,0,0,1,1.667-8.574ZM10.721,25.35a.925.925,0,0,1-.7-1.527l3.214-3.749.7,5.276Zm4.991,1.555h8.383l-.207,1.555H15.919Z" transform="translate(0)" fill="#fff" stroke="#fff" stroke-width="0.5"/>
    <circle id="Ellipse_26" data-name="Ellipse 26" cx="0.686" cy="0.686" r="0.686" transform="translate(19.218 38.427)" fill="#fff" stroke="#fff" stroke-width="0.5"/>
  </g>
</svg>
