<svg xmlns="http://www.w3.org/2000/svg" width="23.396" height="23.396" viewBox="0 0 23.396 23.396">
  <g id="reception" transform="translate(0.15 0.15)">
    <g id="Group_795" data-name="Group 795">
      <g id="Group_794" data-name="Group 794">
        <path id="Path_3757" data-name="Path 3757" d="M354.707,5.413A2.707,2.707,0,1,0,352,2.707,2.71,2.71,0,0,0,354.707,5.413Zm0-3.609a.9.9,0,1,1-.9.9A.9.9,0,0,1,354.707,1.8Z" transform="translate(-336.122)" fill="#101928" stroke="#fff9f9" stroke-width="0.3"/>
        <path id="Path_3758" data-name="Path 3758" d="M13.172,158.8H1.8v-6.541h9.563a.9.9,0,0,0,0-1.8H3.428v-3.744a.9.9,0,0,1,.9-.9H7.939a.9.9,0,0,1,.9.9v1.037a.9.9,0,0,0,1.8,0v-1.037A2.71,2.71,0,0,0,7.939,144H4.33a2.71,2.71,0,0,0-2.707,2.707v3.744H.9a.9.9,0,0,0-.9.9V160.6H13.172a.9.9,0,0,0,0-1.8Z" transform="translate(0 -137.504)" fill="#101928" stroke="#fff9f9" stroke-width="0.3"/>
        <path id="Path_3759" data-name="Path 3759" d="M83.707,6.413A2.707,2.707,0,1,0,81,3.707,2.71,2.71,0,0,0,83.707,6.413Zm0-3.609a.9.9,0,1,1-.9.9A.9.9,0,0,1,83.707,2.8Z" transform="translate(-77.346 -0.955)" fill="#101928" stroke="#fff9f9" stroke-width="0.3"/>
        <path id="Path_3760" data-name="Path 3760" d="M318.315,139h-3.609A2.71,2.71,0,0,0,312,141.707v4.917a2.711,2.711,0,0,0,1.8,2.552v5.748a.9.9,0,1,0,1.8,0v-6.5a.9.9,0,0,0-.9-.9.9.9,0,0,1-.9-.9v-4.917a.9.9,0,0,1,.9-.9h3.609a.9.9,0,0,1,.9.9v4.917a.9.9,0,0,1-.9.9.9.9,0,0,0-.9.9v6.5a.9.9,0,1,0,1.8,0v-5.748a2.711,2.711,0,0,0,1.8-2.552v-4.917A2.71,2.71,0,0,0,318.315,139Z" transform="translate(-297.926 -132.73)" fill="#101928" stroke="#fff9f9" stroke-width="0.3"/>
      </g>
    </g>
  </g>
</svg>
