<svg xmlns="http://www.w3.org/2000/svg" width="62.373" height="62" viewBox="0 0 62.373 62">
  <g id="recruitment" transform="translate(-0.813 -1)">
    <path id="Path_7081" data-name="Path 7081" d="M41,55V53a6.014,6.014,0,0,0,1.732-.253l.576,1.915A8.022,8.022,0,0,1,41,55Z"/>
    <path id="Path_7082" data-name="Path 7082" d="M45.412,53.674l-1.1-1.667A6,6,0,0,0,41,41V39a8,8,0,0,1,4.412,14.674Z"/>
    <path id="Path_7083" data-name="Path 7083" d="M28,15a5,5,0,1,1,5-5A5.006,5.006,0,0,1,28,15Zm0-8a3,3,0,1,0,3,3A3,3,0,0,0,28,7Z"/>
    <path id="Path_7084" data-name="Path 7084" d="M38,6h6V22H38Z" fill="#fbd7a4"/>
    <path id="Path_7085" data-name="Path 7085" d="M38,5h6V7H38Z"/>
    <path id="Path_7086" data-name="Path 7086" d="M38,9h6v2H38Z"/>
    <path id="Path_7087" data-name="Path 7087" d="M38,13h6v2H38Z"/>
    <path id="Path_7088" data-name="Path 7088" d="M38,17h6v2H38Z"/>
    <path id="Path_7089" data-name="Path 7089" d="M28,13a8.009,8.009,0,0,0-8,8v2H36V21A8.009,8.009,0,0,0,28,13Zm-6,8a6,6,0,0,1,12,0Z"/>
    <path id="Path_7090" data-name="Path 7090" d="M20,40h8.312V38H22V27H42v5.134h2V25H20Z"/>
    <path id="Path_7091" data-name="Path 7091" d="M48,7.239V1H16V7.239L.813,10.467,7.516,42H6A5,5,0,0,0,6,52H21V50h5.148V48H21V46h5.148V44H21V42H18V3H46V33.25h2V9.284l12.813,2.724L54.527,41.585l-.192.854,1.951.439,6.9-32.41ZM11.678,24.267a5.961,5.961,0,0,1,3.785-2.6c.174-.037.356-.057.537-.077v6.1l-5.158,1.1a5.962,5.962,0,0,1,.836-4.516Zm1.111-4.975A2.983,2.983,0,1,1,16,14.263v5.023a2.847,2.847,0,0,1-.953.424A2.985,2.985,0,0,1,12.789,19.292Zm-9.6-7.285L16,9.284v2.761a4.912,4.912,0,0,0-2.617-.16A5,5,0,0,0,11.7,20.968c.082.053.169.092.253.14A7.978,7.978,0,0,0,8.886,29.2L9.3,31.155,16,29.73v2.045L9.716,33.111,11.6,42H9.561ZM19,50H6a3,3,0,0,1,0-6H19Zm-5.349-8-1.562-7.349L16,33.82V42Z"/>
    <path id="Path_7092" data-name="Path 7092" d="M38,21h6v2H38Z"/>
    <path id="Path_7093" data-name="Path 7093" d="M45.636,18.728h16v6h-16Z" transform="translate(21.232 69.674) rotate(-77.993)" fill="#fbd7a4"/>
    <path id="Path_7094" data-name="Path 7094" d="M54.3,10.9h2v6h-2Z" transform="translate(30.203 65.103) rotate(-77.993)"/>
    <path id="Path_7095" data-name="Path 7095" d="M53.468,14.815h2v6h-2Z" transform="translate(25.717 67.389) rotate(-77.993)"/>
    <path id="Path_7096" data-name="Path 7096" d="M52.636,18.728h2v6h-2Z" transform="translate(21.23 69.673) rotate(-77.993)"/>
    <path id="Path_7097" data-name="Path 7097" d="M51.805,22.64h2v6h-2Z" transform="translate(16.746 71.96) rotate(-77.993)"/>
    <path id="Path_7098" data-name="Path 7098" d="M50.973,26.553h2v6h-2Z" transform="translate(12.26 74.245) rotate(-77.993)"/>
    <path id="Path_7099" data-name="Path 7099" d="M41,63A16,16,0,1,1,57,47,16.019,16.019,0,0,1,41,63Zm0-27A11,11,0,1,0,52,47,11.013,11.013,0,0,0,41,36Z" fill="#fbd7a4"/>
    <path id="Path_7100" data-name="Path 7100" d="M41,59A12,12,0,1,1,53,47,12.013,12.013,0,0,1,41,59Zm0-22A10,10,0,1,0,51,47,10.011,10.011,0,0,0,41,37Z"/>
  </g>
</svg>
