<svg xmlns="http://www.w3.org/2000/svg" width="55.553" height="55.552" viewBox="0 0 55.553 55.552">
  <g id="rocket" transform="translate(0 -0.004)">
    <path id="Path_3662" data-name="Path 3662" d="M211.425,136.854A5.425,5.425,0,1,0,206,131.429,5.431,5.431,0,0,0,211.425,136.854Zm0-8.68a3.255,3.255,0,1,1-3.255,3.255A3.259,3.259,0,0,1,211.425,128.174Z" transform="translate(-183.649 -112.329)" fill="#101928"/>
    <path id="Path_3663" data-name="Path 3663" d="M19.826,48.912a5.437,5.437,0,0,0-4.963-4.2,7.877,7.877,0,0,0-8.147-4.272A8.137,8.137,0,0,0,0,47.961a7.832,7.832,0,0,0,7.812,7.595H22.893a1.085,1.085,0,0,0,0-2.17H7.812A5.682,5.682,0,0,1,2.17,47.961a6.009,6.009,0,0,1,4.849-5.368,5.757,5.757,0,0,1,5.559,2.482A5.421,5.421,0,0,0,10.7,46.3a1.085,1.085,0,1,0,1.535,1.533,3.254,3.254,0,0,1,5.556,2.3,1.085,1.085,0,0,0,1.085,1.085,5.611,5.611,0,0,0,5.642-5.425V41.885h6.51v3.906a5.611,5.611,0,0,0,5.642,5.425,1.085,1.085,0,0,0,1.085-1.085,3.254,3.254,0,0,1,5.556-2.3A1.085,1.085,0,0,0,44.849,46.3a5.42,5.42,0,0,0-1.875-1.221,5.757,5.757,0,0,1,5.559-2.482,5.97,5.97,0,0,1,4.849,5.456,5.646,5.646,0,0,1-5.642,5.338H32.658a1.085,1.085,0,1,0,0,2.17H47.74a7.854,7.854,0,0,0,7.812-7.466,8.091,8.091,0,0,0-6.715-7.646,7.877,7.877,0,0,0-8.148,4.272,5.436,5.436,0,0,0-4.963,4.2A3.4,3.4,0,0,1,33.2,45.791V41.885h1.085a1.085,1.085,0,0,0,1.075-.942l.453-3.4H40.59a3.461,3.461,0,0,0,2.628-5.713l-5.747-6.705.559-4.191A21.311,21.311,0,0,0,28.334.159a1.085,1.085,0,0,0-1.117,0,21.312,21.312,0,0,0-9.7,20.777l.559,4.19-5.748,6.706a3.461,3.461,0,0,0,2.629,5.713h4.775l.453,3.4a1.085,1.085,0,0,0,1.075.942h1.085v3.906a3.4,3.4,0,0,1-2.525,3.121ZM41.57,33.244a1.291,1.291,0,0,1-.98,2.132H36.1l.982-7.363ZM27.776,2.371a17.522,17.522,0,0,1,4.371,4.144H23.4A17.52,17.52,0,0,1,27.776,2.371ZM22,8.684H33.552a19.444,19.444,0,0,1,2.327,11.965L33.914,35.375H21.637L19.674,20.65A19.443,19.443,0,0,1,22,8.684ZM14.962,35.375a1.291,1.291,0,0,1-.981-2.131l4.485-5.232.982,7.363Zm6.964,2.17h11.7l-.289,2.17H22.216Z" transform="translate(0 0)" fill="#101928"/>
    <circle id="Ellipse_26" data-name="Ellipse 26" cx="0.957" cy="0.957" r="0.957" transform="translate(26.819 53.625)" fill="#101928"/>
  </g>
</svg>
