<svg xmlns="http://www.w3.org/2000/svg" width="99.302" height="97.202" viewBox="0 0 99.302 97.202">
  <g id="_3" data-name="3" transform="translate(-911 -483.786)">
    <g id="Group_1345" data-name="Group 1345" transform="translate(310.732 458.485)">
      <path id="Path_7451" data-name="Path 7451" d="M693.338,122.036a13.2,13.2,0,0,1-2.387.468h-2.636c-4.422-.28-7.85-4.352-8.384-8a9.407,9.407,0,0,1,.552-5.343,1.436,1.436,0,0,0-.369-1.856c-3.071-3.017-6.1-6.076-9.145-9.117-.733-.731-.775-.74-1.607-.125a24.34,24.34,0,0,1-12.395,4.758,25.034,25.034,0,0,1-17.487-4.7c-.937-.677-.942-.677-1.741.12-1.452,1.447-2.888,2.911-4.356,4.34a1.028,1.028,0,0,0-.242,1.44,12.761,12.761,0,0,1-7.477,18.138c-.733.228-1.5.155-2.228.348h-1.758a1.348,1.348,0,0,0-1.055,0h-.529a12.286,12.286,0,0,1-10.635-10.489.394.394,0,0,0-.089-.237v-3.515a11.473,11.473,0,0,1,5.045-8.562,12.4,12.4,0,0,1,13.3-1.032,1.191,1.191,0,0,0,1.661-.251c1.415-1.483,2.871-2.93,4.349-4.352a1,1,0,0,0,.125-1.567,24.173,24.173,0,0,1-4.793-12.388A25.026,25.026,0,0,1,633.744,62.6c.688-.954.688-.956-.162-1.807-3.005-3.005-6.022-6-9-9.025a1.484,1.484,0,0,0-1.854-.392,9.935,9.935,0,0,1-13.032-5.943c-.221-.616-.127-1.269-.324-1.88V41.623c.183-.287.047-.6.089-.9v-.007c.115-3.064,1.842-5.144,4.2-6.831,1.974-1.412,4.222-1.56,6.546-1.469,4.584.181,8.953,4.9,8.755,9.768a10.434,10.434,0,0,1-.752,3.849,1.182,1.182,0,0,0,.294,1.49q4.709,4.677,9.383,9.39c.545.55.949.451,1.506.035a24.146,24.146,0,0,1,12.395-4.779,24.989,24.989,0,0,1,17.428,4.65c1.008.726,1.01.724,1.882-.143,1.431-1.429,2.845-2.874,4.3-4.281a1.039,1.039,0,0,0,.212-1.452A12.628,12.628,0,0,1,683.746,32.7c7.453-1.734,13.932,2.366,15.461,9.392A12.465,12.465,0,0,1,688.8,57.573a11.6,11.6,0,0,1-7.834-1.285,1.061,1.061,0,0,0-1.52.226q-2.168,2.249-4.413,4.413a1,1,0,0,0-.11,1.57,24.152,24.152,0,0,1,4.786,12.39,25.049,25.049,0,0,1-4.7,17.5c-.677.94-.681.942.122,1.748,3.024,3.026,6.06,6.039,9.065,9.084a1.432,1.432,0,0,0,1.776.4,9.727,9.727,0,0,1,13.121,6.213C700.557,114.951,698.649,119.693,693.338,122.036Z" fill="#fdedd6"/>
    </g>
    <g id="Group_1344" data-name="Group 1344" transform="translate(295.18 437.403)">
      <path id="Path_7450" data-name="Path 7450" d="M705.583,125.113A8.454,8.454,0,0,0,701.2,119.8a9.346,9.346,0,0,0-7.5-.273,2.667,2.667,0,0,1-3.117-.69c-2.191-2.217-4.437-4.461-6.608-6.63q-1.35-1.343-2.693-2.69c-1.245-1.247-1.3-1.9-.256-3.346a24.622,24.622,0,0,0,4.606-17.161A23.641,23.641,0,0,0,680.955,76.9a2.2,2.2,0,0,1,.244-3.2c1.457-1.4,2.97-2.912,4.5-4.5a2.273,2.273,0,0,1,3.03-.442,10.7,10.7,0,0,0,7.248,1.177,11.6,11.6,0,0,0,9.706-14.452,11.441,11.441,0,0,0-4.994-7.351,12.282,12.282,0,0,0-9.429-1.373,11.254,11.254,0,0,0-7.848,6.4,12.079,12.079,0,0,0,.28,10.589,2.265,2.265,0,0,1-.444,2.919c-1.016.984-2.036,2.01-3.021,3q-.688.691-1.378,1.382c-1.322,1.312-1.974,1.366-3.491.273a24.536,24.536,0,0,0-17.079-4.553,23.631,23.631,0,0,0-12.116,4.673,2.165,2.165,0,0,1-3.124-.154c-2.758-2.789-5.725-5.759-9.627-9.634a2.415,2.415,0,0,1-.555-2.871,9.663,9.663,0,0,0,.671-3.515,8.562,8.562,0,0,0-2.405-6.029,8.046,8.046,0,0,0-5.426-2.746c-2.376-.094-4.3.087-5.974,1.284-2.536,1.814-3.711,3.682-3.807,6.056l-.007.13c0,.034,0,.068,0,.1a2.271,2.271,0,0,1-.089.934v1.561a5.675,5.675,0,0,1,.15.987,3.156,3.156,0,0,0,.113.7,8.994,8.994,0,0,0,11.808,5.385,2.709,2.709,0,0,1,3.2.68c2.275,2.314,4.611,4.644,6.871,6.9l2.364,2.36c1.286,1.288,1.344,1.957.292,3.416a24.585,24.585,0,0,0-4.591,17.154,23.661,23.661,0,0,0,4.688,12.112,2.2,2.2,0,0,1-.258,3.2c-1.646,1.583-3.1,3.033-4.43,4.432a2.413,2.413,0,0,1-3.105.511,11.56,11.56,0,0,0-12.435.96,10.587,10.587,0,0,0-4.669,7.865V126.5a1.641,1.641,0,0,1,.089.427,11.423,11.423,0,0,0,9.771,9.66h.285a2.565,2.565,0,0,1,1.489,0h1.46a8.3,8.3,0,0,1,1.1-.154,4.979,4.979,0,0,0,.968-.147,11.9,11.9,0,0,0,6.97-16.906,2.226,2.226,0,0,1,.47-2.91c1.013-.987,2.031-2.007,3.013-2.994l1.45-1.452c1.245-1.24,1.9-1.288,3.346-.246a24.586,24.586,0,0,0,17.137,4.6,23.829,23.829,0,0,0,12.121-4.654c1.325-.98,2.046-.926,3.219.244q1.487,1.484,2.97,2.97c2.1,2.1,4.263,4.27,6.415,6.384a2.655,2.655,0,0,1,.632,3.262,8.386,8.386,0,0,0-.473,4.816c.478,3.264,3.583,6.92,7.455,7.185h2.533c.328-.07.642-.106.948-.142a4.1,4.1,0,0,0,1.148-.234C705.019,134.146,706.978,130,705.583,125.113ZM688.1,52.079a8.587,8.587,0,0,1,6.094-2.509h.031a8.642,8.642,0,0,1-.024,17.284h-.014A8.644,8.644,0,0,1,688.1,52.079ZM624.58,61.047h-.007a5.739,5.739,0,1,1,0-11.477h.041a5.745,5.745,0,0,1,5.684,5.761A5.672,5.672,0,0,1,624.58,61.047Zm8.978,70.018a8.582,8.582,0,0,1-6.094,2.514h-.031a8.679,8.679,0,0,1-8.608-8.715,8.658,8.658,0,0,1,8.637-8.57h.014a8.641,8.641,0,0,1,6.082,14.77Zm38.7-21.046a21.151,21.151,0,0,1-5.433,2.4,22.082,22.082,0,0,1-5.964.859,21.694,21.694,0,0,1-11.4-3.226,1.922,1.922,0,0,1-.91-2.485,12.93,12.93,0,0,1,12.295-8.7h.1a13.008,13.008,0,0,1,12.17,8.739A1.87,1.87,0,0,1,672.262,110.019ZM653.646,88.706v-.019a7.15,7.15,0,0,1,7.183-7.192h.014a7.183,7.183,0,1,1-.017,14.365h-.01A7.188,7.188,0,0,1,653.646,88.706Zm23.731,16.79-1.2,1.363-.789-1.638a15.949,15.949,0,0,0-6.618-7.236,1.511,1.511,0,0,1-.183-2.695l.017-.014a10.059,10.059,0,0,0,1.325-11.161,9.69,9.69,0,0,0-9.45-5.593,9.507,9.507,0,0,0-8.982,6.143c-1.624,3.73-1.078,7.315,1.616,10.654l.162.2c.08.1.157.191.237.29a1.36,1.36,0,0,1,.224.405l.019.048.417,1-.948.524a16.1,16.1,0,0,0-6.9,7.361l-.736,1.559-1.214-1.223a19.91,19.91,0,0,1-5.17-12.208,21.692,21.692,0,1,1,43.3-2.55A21.307,21.307,0,0,1,677.377,105.5Zm23.75,26.414a5.712,5.712,0,0,1-4.048,1.67h-.063a5.754,5.754,0,0,1-5.66-5.759v-.031a5.669,5.669,0,0,1,5.73-5.687h.019a5.729,5.729,0,0,1,4.022,9.808Z" transform="translate(0 0)" fill="#101928"/>
    </g>
  </g>
</svg>
